<svg width="10" height="6" viewBox="0 0 10 6" fill="none" xmlns="http://www.w3.org/2000/svg">
<path d="M0.160006 0.494001L0.488006 0.164001C0.591005 0.0610008 0.728005 0.00400081 0.875006 0.0040008C1.02201 0.00400079 1.15901 0.0610008 1.26201 0.164001L4.99801 3.901L8.73901 0.16C8.84201 0.0570001 8.97901 8.92368e-08 9.12501 7.64731e-08C9.27101 6.37093e-08 9.40901 0.057 9.51201 0.16L9.84001 0.487C10.053 0.7 10.053 1.047 9.84001 1.261L5.38601 5.731C5.28301 5.834 5.14601 5.906 4.99801 5.906L4.99601 5.906C4.84901 5.906 4.71201 5.833 4.60901 5.731L0.159006 1.273C0.057006 1.17 5.812e-06 1.029 5.79915e-06 0.882001C5.78639e-06 0.736001 0.0570059 0.597001 0.160006 0.494001Z" fill="#0F80C4"/>
</svg>
