<svg width="28" height="14" viewBox="0 0 28 14" fill="none" xmlns="http://www.w3.org/2000/svg">
<g clip-path="url(#clip0_24_57)">
<path d="M27.5494 5.90875L22.0586 0.446146C21.5222 -0.0875781 20.639 -0.166952 20.0751 0.339401C19.4737 0.877505 19.4555 1.79989 20.0206 2.36263L22.5093 4.83911C22.7904 5.11883 22.5912 5.59618 22.194 5.59618H13.2198C12.4604 5.59618 11.7804 6.16165 11.7408 6.91598C11.6984 7.71958 12.341 8.38578 13.1405 8.38578H22.194C22.5912 8.38578 22.7904 8.86366 22.5093 9.14284L20.0767 11.5635C19.5402 12.0972 19.461 12.9758 19.9689 13.5364C20.5103 14.1347 21.438 14.1527 22.0031 13.5911L27.5494 8.07266C28.1502 7.47543 28.1502 6.50597 27.5494 5.90875Z" fill="white"/>
<path d="M7.9464 5.59619H6.33094C5.55676 5.59619 4.92896 6.22079 4.92896 6.99099C4.92896 7.7612 5.55676 8.38579 6.33094 8.38579H7.9464C8.72057 8.38579 9.34783 7.7612 9.34783 6.99099C9.34783 6.22079 8.72057 5.59619 7.9464 5.59619Z" fill="white"/>
<path d="M1.55274 5.59619H1.40143C0.62781 5.59619 0 6.22133 0 6.99154C0 7.76174 0.62781 8.38634 1.40143 8.38634H1.55219C2.32691 8.38634 2.95362 7.76174 2.95362 6.99154C2.95362 6.22133 2.32691 5.59619 1.55274 5.59619Z" fill="white"/>
</g>
<defs>
<clipPath id="clip0_24_57">
<rect width="28" height="14" fill="white"/>
</clipPath>
</defs>
</svg>
