<svg width="20" height="20" viewBox="0 0 20 20" fill="none" xmlns="http://www.w3.org/2000/svg">
<g clip-path="url(#clip0_65_886)">
<path d="M8.38615 15.7354C7.41626 15.7354 6.6272 16.5244 6.6272 17.4943C6.6272 18.4642 7.41626 19.2532 8.38615 19.2532C9.35603 19.2532 10.1451 18.4642 10.1451 17.4943C10.1451 16.5244 9.35599 15.7354 8.38615 15.7354ZM8.38615 18.2711C7.95779 18.2711 7.60931 17.9225 7.60931 17.4942C7.60931 17.0659 7.95782 16.7174 8.38615 16.7174C8.81447 16.7174 9.16298 17.0659 9.16298 17.4942C9.16298 17.9226 8.81447 18.2711 8.38615 18.2711Z" fill="white"/>
<path d="M14.5559 15.7354C13.586 15.7354 12.7969 16.5244 12.7969 17.4943C12.7969 18.4642 13.586 19.2532 14.5559 19.2532C15.5258 19.2532 16.3148 18.4642 16.3148 17.4943C16.3148 16.5244 15.5257 15.7354 14.5559 15.7354ZM14.5559 18.2711C14.1275 18.2711 13.779 17.9225 13.779 17.4942C13.779 17.0659 14.1276 16.7174 14.5559 16.7174C14.9842 16.7174 15.3327 17.0659 15.3327 17.4942C15.3327 17.9226 14.9842 18.2711 14.5559 18.2711Z" fill="white"/>
<path d="M19.779 4.28682C19.5917 4.05698 19.3142 3.92518 19.0177 3.92518H3.72179L3.41289 2.42561C3.34839 2.1128 3.13503 1.85014 2.84203 1.72291L0.686669 0.787364C0.43784 0.679278 0.148659 0.793458 0.0407294 1.04221C-0.0673178 1.29104 0.0468622 1.58026 0.295574 1.68819L2.45097 2.62377L4.82699 14.1574C4.92059 14.6116 5.32512 14.9413 5.78891 14.9413H17.5532C17.8245 14.9413 18.0443 14.7215 18.0443 14.4503C18.0443 14.1791 17.8245 13.9592 17.5532 13.9592H5.78895L5.49992 12.5563H17.6442C18.1079 12.5563 18.5125 12.2266 18.6061 11.7723L19.9796 5.10534C20.0394 4.81503 19.9663 4.51663 19.779 4.28682ZM17.6442 11.5742H5.29762L3.92414 4.90726L19.0177 4.90729L17.6442 11.5742Z" fill="white"/>
</g>
<defs>
<clipPath id="clip0_65_886">
<rect width="20" height="20" fill="white"/>
</clipPath>
</defs>
</svg>
