<svg width="599" height="602" viewBox="0 0 599 602" fill="none" xmlns="http://www.w3.org/2000/svg">
<circle cx="297.461" cy="293.461" r="63.4607" fill="url(#paint0_linear_391_850)" fill-opacity="0.8"/>
<circle cx="296.884" cy="292.884" r="31.7304" fill="#1B1D32"/>
<circle cx="318.807" cy="272.115" r="14.4229" fill="white"/>
<path fill-rule="evenodd" clip-rule="evenodd" d="M302 557C442.833 557 557 442.833 557 302C557 161.167 442.833 47 302 47C161.167 47 47 161.167 47 302C47 442.833 161.167 557 302 557ZM333 226C291 218.696 250 220.318 226.5 231C203 241.682 189 251 172.5 267.5C156 284 132.5 317.5 133.5 324C134.5 330.5 211 363 292 363C373 363 439 329 436 316.5C433 304 375 233.304 333 226Z" fill="#E9F4FF"/>
<g clip-path="url(#clip0_391_850)">
<path fill-rule="evenodd" clip-rule="evenodd" d="M347.539 191.04C348.108 190.837 348.732 191.445 348.53 192.016C348.394 192.605 347.536 192.774 347.172 192.301C346.794 191.903 347.014 191.182 347.539 191.04Z" fill="#2A2651"/>
<path fill-rule="evenodd" clip-rule="evenodd" d="M328.499 191.235C328.923 191.005 329.51 191.369 329.43 191.861C329.408 192.346 328.76 192.591 328.402 192.288C328.053 192.026 328.11 191.428 328.499 191.235Z" fill="#2A2651"/>
<path fill-rule="evenodd" clip-rule="evenodd" d="M281.197 191.467C281.459 191.323 281.829 191.574 281.728 191.874C281.689 192.205 281.176 192.268 281.049 191.966C280.94 191.791 281.024 191.563 281.197 191.467Z" fill="#2A2651"/>
<path fill-rule="evenodd" clip-rule="evenodd" d="M337.472 197.892C338.295 197.698 339.188 197.804 339.934 198.206C340.994 198.779 341.74 199.924 341.748 201.138C341.813 202.317 341.205 203.502 340.212 204.143C339.16 204.857 337.71 204.903 336.601 204.293C335.954 203.928 335.42 203.361 335.12 202.682C334.693 201.736 334.717 200.596 335.2 199.675C335.646 198.787 336.501 198.116 337.472 197.892Z" fill="#2A2651"/>
<path fill-rule="evenodd" clip-rule="evenodd" d="M290.15 198C290.825 197.883 291.544 197.914 292.178 198.198C293.134 198.595 293.865 199.468 294.106 200.472C294.332 201.467 294.116 202.573 293.451 203.361C292.743 204.25 291.559 204.718 290.433 204.56C288.847 204.402 287.522 202.947 287.526 201.354C287.438 199.794 288.618 198.3 290.15 198Z" fill="#2A2651"/>
<path fill-rule="evenodd" clip-rule="evenodd" d="M281.199 198.769C282.013 198.716 282.856 199.075 283.349 199.731C283.796 200.31 283.985 201.095 283.805 201.808C283.615 202.725 282.852 203.495 281.933 203.688C281.109 203.879 280.189 203.63 279.601 203.019C278.949 202.384 278.71 201.376 278.989 200.514C279.268 199.548 280.198 198.833 281.199 198.769Z" fill="#2A2651"/>
<path fill-rule="evenodd" clip-rule="evenodd" d="M300.219 198.766C301.059 198.724 301.912 199.129 302.39 199.825C302.815 200.4 302.915 201.16 302.772 201.848C302.572 202.698 301.887 203.419 301.042 203.65C300.147 203.924 299.108 203.634 298.489 202.933C297.889 202.284 297.692 201.311 297.972 200.477C298.27 199.513 299.211 198.809 300.219 198.766Z" fill="#2A2651"/>
<path fill-rule="evenodd" clip-rule="evenodd" d="M243.269 199.534C244.299 199.403 245.272 200.359 245.159 201.389C245.112 202.299 244.247 203.062 243.335 202.988C242.441 202.965 241.661 202.149 241.698 201.255C241.671 200.387 242.403 199.595 243.269 199.534Z" fill="#2A2651"/>
<path fill-rule="evenodd" clip-rule="evenodd" d="M318.908 199.547C319.919 199.274 321.045 200.087 321.068 201.14C321.168 202.079 320.367 202.994 319.419 203.006C318.575 203.086 317.747 202.457 317.594 201.627C317.371 200.728 318 199.739 318.908 199.547Z" fill="#2A2651"/>
<path fill-rule="evenodd" clip-rule="evenodd" d="M404.353 200.182C404.734 200.091 405.183 200.148 405.472 200.442C405.949 200.875 405.925 201.716 405.419 202.117C404.925 202.563 404.053 202.427 403.722 201.853C403.343 201.261 403.657 200.36 404.353 200.182Z" fill="#2A2651"/>
<path fill-rule="evenodd" clip-rule="evenodd" d="M375.819 200.293C376.478 199.992 377.309 200.525 377.281 201.255C377.329 202.046 376.335 202.599 375.683 202.157C374.957 201.765 375.044 200.576 375.819 200.293Z" fill="#2A2651"/>
<path fill-rule="evenodd" clip-rule="evenodd" d="M262.07 200.63C262.549 200.353 263.202 200.801 263.108 201.347C263.067 201.893 262.323 202.164 261.931 201.792C261.561 201.491 261.638 200.834 262.07 200.63Z" fill="#2A2651"/>
<path fill-rule="evenodd" clip-rule="evenodd" d="M394.972 200.644C395.418 200.455 395.943 200.883 395.85 201.358C395.815 201.833 395.195 202.071 394.826 201.798C394.401 201.53 394.488 200.795 394.972 200.644Z" fill="#2A2651"/>
<path fill-rule="evenodd" clip-rule="evenodd" d="M366.526 200.721C366.897 200.588 367.322 200.843 367.331 201.249C367.335 201.641 366.891 201.969 366.526 201.792C366.054 201.638 366.06 200.882 366.526 200.721Z" fill="#2A2651"/>
<path fill-rule="evenodd" clip-rule="evenodd" d="M271.792 200.957C272.065 200.842 272.318 201.208 272.152 201.434C272.033 201.635 271.684 201.616 271.602 201.394C271.514 201.229 271.615 201.007 271.792 200.957Z" fill="#2A2651"/>
<path fill-rule="evenodd" clip-rule="evenodd" d="M309.811 200.956C310.159 200.94 310.23 201.526 309.868 201.541C309.48 201.62 309.43 200.99 309.811 200.956Z" fill="#2A2651"/>
<path fill-rule="evenodd" clip-rule="evenodd" d="M328.619 200.938C329.001 200.68 329.408 201.351 329.003 201.566C328.604 201.858 328.182 201.16 328.619 200.938Z" fill="#2A2651"/>
<path fill-rule="evenodd" clip-rule="evenodd" d="M233.854 201.043C234.193 200.882 234.304 201.514 233.945 201.479C233.685 201.533 233.623 201.091 233.854 201.043Z" fill="#2A2651"/>
<path fill-rule="evenodd" clip-rule="evenodd" d="M290.27 206.275C292.128 206.002 294.077 207.036 294.889 208.727C295.811 210.539 295.315 212.946 293.701 214.203C292.15 215.508 289.708 215.54 288.118 214.287C286.651 213.191 286 211.155 286.558 209.413C287.036 207.759 288.556 206.477 290.27 206.275Z" fill="#2A2651"/>
<path fill-rule="evenodd" clip-rule="evenodd" d="M280.639 206.376C282.376 206.07 284.247 206.903 285.144 208.424C286.216 210.122 285.921 212.545 284.43 213.903C282.948 215.389 280.384 215.538 278.726 214.258C277.19 213.15 276.555 211.005 277.212 209.234C277.726 207.756 279.089 206.618 280.639 206.376Z" fill="#2A2651"/>
<path fill-rule="evenodd" clip-rule="evenodd" d="M299.558 206.385C301.219 206.079 303.021 206.799 303.969 208.203C305.099 209.768 305.003 212.07 303.749 213.539C302.513 215.076 300.193 215.584 298.428 214.696C296.754 213.923 295.705 212.022 295.963 210.196C296.146 208.317 297.693 206.689 299.558 206.385Z" fill="#2A2651"/>
<path fill-rule="evenodd" clip-rule="evenodd" d="M309.169 206.71C310.757 206.436 312.467 207.194 313.296 208.581C314.304 210.157 314.024 212.428 312.624 213.686C311.295 214.981 309.054 215.153 307.537 214.089C306.108 213.152 305.418 211.262 305.904 209.628C306.301 208.13 307.634 206.942 309.169 206.71Z" fill="#2A2651"/>
<path fill-rule="evenodd" clip-rule="evenodd" d="M328.297 206.713C329.897 206.494 331.58 207.337 332.343 208.761C333.235 210.306 332.925 212.425 331.607 213.635C330.212 215.047 327.748 215.131 326.237 213.855C324.877 212.782 324.376 210.793 325.05 209.201C325.577 207.867 326.869 206.878 328.297 206.713Z" fill="#2A2651"/>
<path fill-rule="evenodd" clip-rule="evenodd" d="M271.029 206.826C272.706 206.436 274.57 207.267 275.384 208.785C276.35 210.46 275.864 212.795 274.281 213.919C272.761 215.099 270.389 214.935 269.061 213.542C267.802 212.345 267.541 210.302 268.381 208.798C268.925 207.801 269.919 207.068 271.029 206.826Z" fill="#2A2651"/>
<path fill-rule="evenodd" clip-rule="evenodd" d="M261.864 207.063C263.457 206.808 265.147 207.72 265.784 209.203C266.358 210.459 266.154 212.029 265.261 213.085C264.314 214.254 262.621 214.725 261.204 214.225C260.026 213.842 259.089 212.822 258.801 211.621C258.577 210.631 258.72 209.536 259.302 208.689C259.868 207.812 260.829 207.207 261.864 207.063Z" fill="#2A2651"/>
<path fill-rule="evenodd" clip-rule="evenodd" d="M338.038 208.586C339.269 208.402 340.511 209.487 340.424 210.741C340.496 212.001 339.221 213.066 337.992 212.853C336.873 212.737 336.009 211.621 336.139 210.515C336.218 209.531 337.053 208.684 338.038 208.586Z" fill="#2A2651"/>
<path fill-rule="evenodd" clip-rule="evenodd" d="M318.909 209.257C319.843 208.963 320.891 209.764 320.834 210.741C320.868 211.65 319.935 212.411 319.049 212.222C318.3 212.109 317.73 211.375 317.794 210.626C317.819 209.991 318.297 209.419 318.909 209.257Z" fill="#2A2651"/>
<path fill-rule="evenodd" clip-rule="evenodd" d="M394.758 209.266C395.576 209.002 396.54 209.542 396.687 210.399C396.912 211.252 396.235 212.164 395.366 212.239C394.625 212.332 393.873 211.809 393.72 211.08C393.518 210.324 394 209.473 394.758 209.266Z" fill="#2A2651"/>
<path fill-rule="evenodd" clip-rule="evenodd" d="M366.222 209.349C367.063 209.012 368.12 209.607 368.201 210.523C368.349 211.37 367.604 212.244 366.733 212.181C365.869 212.223 365.129 211.354 365.299 210.508C365.348 209.986 365.734 209.531 366.222 209.349Z" fill="#2A2651"/>
<path fill-rule="evenodd" clip-rule="evenodd" d="M214.527 209.597C215.329 209.257 216.301 209.983 216.175 210.849C216.122 211.733 214.988 212.25 214.281 211.717C213.492 211.226 213.644 209.897 214.527 209.597Z" fill="#2A2651"/>
<path fill-rule="evenodd" clip-rule="evenodd" d="M252.552 210.023C253.056 209.731 253.747 210.17 253.696 210.747C253.723 211.361 252.925 211.73 252.452 211.361C251.97 211.057 252.041 210.257 252.552 210.023Z" fill="#2A2651"/>
<path fill-rule="evenodd" clip-rule="evenodd" d="M404.459 210.111C404.87 209.939 405.389 210.29 405.327 210.744C405.37 211.238 404.72 211.564 404.332 211.277C403.879 211.022 403.958 210.261 404.459 210.111Z" fill="#2A2651"/>
<path fill-rule="evenodd" clip-rule="evenodd" d="M243.145 210.219C243.514 209.994 244.039 210.303 244.006 210.738C244.025 211.183 243.449 211.457 243.098 211.203C242.759 210.984 242.777 210.4 243.145 210.219Z" fill="#2A2651"/>
<path fill-rule="evenodd" clip-rule="evenodd" d="M385.441 210.209C385.851 209.978 386.403 210.377 386.281 210.84C386.223 211.304 385.549 211.461 385.276 211.095C385.02 210.834 385.131 210.374 385.441 210.209Z" fill="#2A2651"/>
<path fill-rule="evenodd" clip-rule="evenodd" d="M423.37 210.219C423.733 210.001 424.282 210.294 424.232 210.736C424.252 211.146 423.763 211.427 423.409 211.243C422.991 211.079 422.976 210.419 423.37 210.219Z" fill="#2A2651"/>
<path fill-rule="evenodd" clip-rule="evenodd" d="M357.141 210.431C357.552 210.242 357.75 210.975 357.325 211.029C356.958 211.128 356.78 210.54 357.141 210.431Z" fill="#2A2651"/>
<path fill-rule="evenodd" clip-rule="evenodd" d="M413.983 210.453C414.311 210.24 414.68 210.717 414.382 210.967C414.062 211.24 413.631 210.705 413.983 210.453Z" fill="#2A2651"/>
<path fill-rule="evenodd" clip-rule="evenodd" d="M224.336 210.527C224.613 210.3 224.885 210.888 224.52 210.939C224.253 211.051 224.106 210.642 224.336 210.527Z" fill="#2A2651"/>
<path fill-rule="evenodd" clip-rule="evenodd" d="M347.732 210.55C347.935 210.495 348.005 210.838 347.812 210.892C347.601 210.948 347.527 210.597 347.732 210.55Z" fill="#2A2651"/>
<path fill-rule="evenodd" clip-rule="evenodd" d="M308.845 215.32C310.334 214.993 311.984 215.446 313.033 216.567C314.362 217.879 314.679 220.053 313.816 221.703C313.073 223.182 311.453 224.174 309.79 224.13C308.081 224.146 306.436 223.064 305.752 221.506C305.044 219.969 305.317 218.042 306.436 216.768C307.053 216.041 307.915 215.53 308.845 215.32Z" fill="#2A2651"/>
<path fill-rule="evenodd" clip-rule="evenodd" d="M328.188 215.664C329.592 215.469 331.083 215.965 332.065 216.991C333.19 218.097 333.634 219.816 333.231 221.335C332.83 222.966 331.445 224.297 329.801 224.644C328.132 225.031 326.281 224.39 325.227 223.042C324.058 221.629 323.908 219.491 324.832 217.914C325.519 216.696 326.799 215.84 328.188 215.664Z" fill="#2A2651"/>
<path fill-rule="evenodd" clip-rule="evenodd" d="M347.643 215.647C349.651 215.56 351.6 216.965 352.136 218.899C352.717 220.767 351.922 222.957 350.255 223.993C348.544 225.151 346.051 224.911 344.6 223.44C343.355 222.267 342.9 220.359 343.459 218.747C344.022 216.972 345.78 215.682 347.643 215.647Z" fill="#2A2651"/>
<path fill-rule="evenodd" clip-rule="evenodd" d="M376.055 215.649C378.005 215.549 379.919 216.845 380.529 218.699C381.203 220.56 380.484 222.808 378.834 223.913C377.238 225.056 374.907 224.984 373.389 223.738C371.822 222.532 371.252 220.26 372.024 218.449C372.672 216.836 374.315 215.701 376.055 215.649Z" fill="#2A2651"/>
<path fill-rule="evenodd" clip-rule="evenodd" d="M233.657 215.761C235.355 215.635 237.073 216.58 237.86 218.09C238.565 219.388 238.551 221.053 237.833 222.342C236.934 224.002 234.905 224.945 233.057 224.532C231.059 224.169 229.463 222.271 229.515 220.235C229.453 218.665 230.35 217.124 231.711 216.35C232.303 216.006 232.975 215.811 233.657 215.761Z" fill="#2A2651"/>
<path fill-rule="evenodd" clip-rule="evenodd" d="M242.595 215.754C244.481 215.37 246.527 216.348 247.414 218.049C248.356 219.749 248.028 222.041 246.618 223.389C245.207 224.843 242.781 225.126 241.071 224.041C239.411 223.071 238.562 220.979 239.032 219.124C239.423 217.432 240.877 216.046 242.595 215.754Z" fill="#2A2651"/>
<path fill-rule="evenodd" clip-rule="evenodd" d="M252.103 215.749C253.93 215.388 255.898 216.298 256.821 217.906C257.84 219.589 257.568 221.919 256.178 223.314C254.761 224.846 252.248 225.147 250.501 224.008C248.908 223.04 248.07 221.019 248.5 219.208C248.86 217.471 250.347 216.038 252.103 215.749Z" fill="#2A2651"/>
<path fill-rule="evenodd" clip-rule="evenodd" d="M356.589 215.751C357.848 215.56 359.176 215.927 360.151 216.747C361.65 217.969 362.177 220.197 361.391 221.961C360.648 223.777 358.605 224.933 356.661 224.633C354.539 224.403 352.791 222.465 352.766 220.339C352.637 218.13 354.393 216.033 356.589 215.751Z" fill="#2A2651"/>
<path fill-rule="evenodd" clip-rule="evenodd" d="M224.03 216.092C225.916 215.862 227.848 217.109 228.389 218.93C228.97 220.636 228.254 222.666 226.73 223.631C225.73 224.298 224.438 224.468 223.288 224.142C222.143 223.813 221.167 222.958 220.688 221.87C220.025 220.417 220.305 218.588 221.398 217.417C222.073 216.674 223.028 216.189 224.03 216.092Z" fill="#2A2651"/>
<path fill-rule="evenodd" clip-rule="evenodd" d="M299.775 216.103C301.362 215.775 303.097 216.523 303.926 217.914C304.907 219.453 304.624 221.651 303.267 222.877C302.013 224.094 299.938 224.3 298.462 223.371C297.075 222.539 296.303 220.807 296.648 219.225C296.926 217.676 298.225 216.384 299.775 216.103Z" fill="#2A2651"/>
<path fill-rule="evenodd" clip-rule="evenodd" d="M270.474 216.312C272.238 215.908 274.183 216.885 274.909 218.54C275.707 220.225 275.118 222.425 273.547 223.451C271.961 224.596 269.556 224.292 268.3 222.796C267.044 221.411 267.001 219.128 268.204 217.696C268.77 216.992 269.588 216.495 270.474 216.312Z" fill="#2A2651"/>
<path fill-rule="evenodd" clip-rule="evenodd" d="M403.916 216.302C405.168 216.05 406.528 216.44 407.444 217.331C408.824 218.608 409.05 220.895 407.969 222.427C406.989 223.909 404.954 224.548 403.299 223.902C401.564 223.298 400.444 221.375 400.767 219.573C400.988 217.963 402.316 216.593 403.916 216.302Z" fill="#2A2651"/>
<path fill-rule="evenodd" clip-rule="evenodd" d="M291.372 216.423C293.222 216.354 294.982 217.739 295.333 219.553C295.785 221.453 294.595 223.558 292.725 224.138C291.004 224.75 288.927 223.993 288.032 222.401C287.135 220.941 287.357 218.921 288.542 217.686C289.26 216.899 290.309 216.448 291.372 216.423Z" fill="#2A2651"/>
<path fill-rule="evenodd" clip-rule="evenodd" d="M318.786 216.869C320.48 216.558 322.267 217.77 322.598 219.455C322.984 220.997 322.082 222.715 320.603 223.292C319.103 223.944 317.203 223.307 316.405 221.882C315.754 220.784 315.808 219.311 316.551 218.27C317.064 217.525 317.889 217.01 318.786 216.869Z" fill="#2A2651"/>
<path fill-rule="evenodd" clip-rule="evenodd" d="M337.587 216.983C338.971 216.668 340.505 217.349 341.17 218.607C341.781 219.705 341.686 221.159 340.919 222.159C340.208 223.122 338.937 223.631 337.756 223.422C336.67 223.262 335.707 222.509 335.275 221.507C334.842 220.52 334.93 219.322 335.519 218.417C335.978 217.687 336.744 217.165 337.587 216.983Z" fill="#2A2651"/>
<path fill-rule="evenodd" clip-rule="evenodd" d="M366.229 216.974C367.303 216.8 368.46 217.198 369.179 218.018C369.723 218.612 370.007 219.422 370.009 220.224C370.002 221.345 369.374 222.436 368.399 222.997C367.031 223.823 365.085 223.454 364.144 222.156C363.319 221.096 363.264 219.512 364.019 218.402C364.51 217.642 365.334 217.112 366.229 216.974Z" fill="#2A2651"/>
<path fill-rule="evenodd" clip-rule="evenodd" d="M280.429 217.199C281.19 217.066 282.008 217.112 282.705 217.474C283.735 217.964 284.479 218.996 284.615 220.128C284.856 221.695 283.856 223.328 282.356 223.843C281.131 224.294 279.673 223.978 278.746 223.063C277.759 222.127 277.457 220.597 277.93 219.337C278.339 218.272 279.304 217.43 280.429 217.199Z" fill="#2A2651"/>
<path fill-rule="evenodd" clip-rule="evenodd" d="M384.916 217.195C385.852 216.955 386.901 217.152 387.654 217.769C388.575 218.489 389.024 219.763 388.735 220.897C388.509 221.906 387.736 222.772 386.755 223.105C385.365 223.624 383.657 222.984 382.985 221.658C382.489 220.749 382.492 219.588 383.003 218.686C383.4 217.955 384.108 217.402 384.916 217.195Z" fill="#2A2651"/>
<path fill-rule="evenodd" clip-rule="evenodd" d="M261.969 218.646C262.914 218.349 263.997 219.117 264.001 220.11C264.079 221.005 263.256 221.854 262.351 221.779C261.529 221.799 260.794 221.049 260.807 220.234C260.755 219.517 261.277 218.823 261.969 218.646Z" fill="#2A2651"/>
<path fill-rule="evenodd" clip-rule="evenodd" d="M413.981 218.943C414.773 218.787 415.559 219.552 415.418 220.349C415.366 221.147 414.429 221.674 413.707 221.358C413.041 221.12 412.719 220.277 413.032 219.651C413.198 219.271 413.572 219.005 413.981 218.943Z" fill="#2A2651"/>
<path fill-rule="evenodd" clip-rule="evenodd" d="M214.634 219.165C215.314 218.92 216.117 219.509 216.036 220.236C216.07 221.076 214.948 221.577 214.318 221.046C213.634 220.575 213.829 219.385 214.634 219.165Z" fill="#2A2651"/>
<path fill-rule="evenodd" clip-rule="evenodd" d="M195.613 219.293C196.3 218.981 197.132 219.635 196.953 220.372C196.857 221.1 195.86 221.41 195.344 220.91C194.83 220.475 194.975 219.534 195.613 219.293Z" fill="#2A2651"/>
<path fill-rule="evenodd" clip-rule="evenodd" d="M394.96 219.493C395.429 219.315 395.991 219.719 395.928 220.226C395.947 220.807 395.164 221.144 394.74 220.758C394.303 220.434 394.427 219.644 394.96 219.493Z" fill="#2A2651"/>
<path fill-rule="evenodd" clip-rule="evenodd" d="M205.121 220.213C205.074 219.93 205.377 219.835 205.596 219.79C205.706 219.915 205.888 220.026 205.844 220.224C205.859 220.66 205.099 220.651 205.121 220.213Z" fill="#2A2651"/>
<path fill-rule="evenodd" clip-rule="evenodd" d="M442.387 219.812C442.64 219.644 443.045 219.801 443.067 220.122C443.14 220.456 442.744 220.746 442.444 220.597C442.119 220.477 442.091 219.977 442.387 219.812Z" fill="#2A2651"/>
<path fill-rule="evenodd" clip-rule="evenodd" d="M433.094 220.033C433.282 219.968 433.375 220.289 433.178 220.333C432.984 220.39 432.896 220.08 433.094 220.033Z" fill="#2A2651"/>
<path fill-rule="evenodd" clip-rule="evenodd" d="M204.791 225.246C206.66 224.929 208.659 225.94 209.48 227.65C210.442 229.481 209.895 231.94 208.229 233.177C206.653 234.441 204.214 234.417 202.667 233.117C201.133 231.917 200.581 229.663 201.377 227.888C201.963 226.499 203.298 225.468 204.791 225.246Z" fill="#2A2651"/>
<path fill-rule="evenodd" clip-rule="evenodd" d="M356.387 225.252C357.68 225.002 359.081 225.327 360.101 226.172C361.528 227.294 362.108 229.322 361.537 231.038C360.984 232.821 359.215 234.147 357.337 234.131C355.482 234.206 353.673 232.976 353.05 231.234C352.611 230.071 352.679 228.728 353.247 227.621C353.859 226.41 355.045 225.498 356.387 225.252Z" fill="#2A2651"/>
<path fill-rule="evenodd" clip-rule="evenodd" d="M385.355 225.469C387.233 225.277 389.133 226.515 389.704 228.311C390.321 230.047 389.619 232.132 388.07 233.138C386.837 233.978 385.153 234.078 383.824 233.407C382.278 232.649 381.312 230.883 381.538 229.175C381.716 227.24 383.414 225.597 385.355 225.469Z" fill="#2A2651"/>
<path fill-rule="evenodd" clip-rule="evenodd" d="M347.226 225.597C348.524 225.415 349.895 225.895 350.776 226.869C351.947 228.078 352.212 230.043 351.423 231.526C350.87 232.614 349.803 233.429 348.6 233.661C347.38 233.923 346.047 233.58 345.104 232.766C343.677 231.588 343.248 229.404 344.126 227.777C344.721 226.603 345.916 225.757 347.226 225.597Z" fill="#2A2651"/>
<path fill-rule="evenodd" clip-rule="evenodd" d="M375.642 225.602C377.641 225.271 379.737 226.646 380.201 228.619C380.715 230.452 379.747 232.547 378.012 233.341C376.336 234.185 374.135 233.669 373 232.182C372.095 231.058 371.894 229.44 372.429 228.111C372.952 226.782 374.224 225.794 375.642 225.602Z" fill="#2A2651"/>
<path fill-rule="evenodd" clip-rule="evenodd" d="M195.064 225.692C196.771 225.275 198.677 226.088 199.535 227.62C200.247 228.85 200.255 230.457 199.534 231.684C198.727 233.13 196.975 233.958 195.342 233.665C193.402 233.399 191.853 231.553 191.928 229.6C191.908 227.779 193.286 226.08 195.064 225.692Z" fill="#2A2651"/>
<path fill-rule="evenodd" clip-rule="evenodd" d="M214.959 225.692C216.907 225.641 218.716 227.227 218.909 229.164C219.175 230.964 218.01 232.828 216.28 233.397C214.546 234.03 212.45 233.26 211.543 231.657C210.604 230.11 210.921 227.949 212.273 226.742C212.994 226.07 213.974 225.695 214.959 225.692Z" fill="#2A2651"/>
<path fill-rule="evenodd" clip-rule="evenodd" d="M366.114 226.248C367.255 226.041 368.494 226.421 369.277 227.287C370.42 228.45 370.527 230.441 369.529 231.727C368.756 232.782 367.347 233.322 366.067 233.049C365.123 232.869 364.271 232.272 363.777 231.453C363.242 230.589 363.133 229.49 363.459 228.533C363.842 227.364 364.901 226.46 366.114 226.248Z" fill="#2A2651"/>
<path fill-rule="evenodd" clip-rule="evenodd" d="M432.676 227.124C433.674 226.931 434.767 227.388 435.307 228.253C435.934 229.191 435.835 230.546 435.062 231.372C434.406 232.13 433.283 232.411 432.337 232.096C431.356 231.791 430.632 230.845 430.574 229.824C430.463 228.561 431.42 227.326 432.676 227.124Z" fill="#2A2651"/>
<path fill-rule="evenodd" clip-rule="evenodd" d="M413.652 228.111C414.51 227.8 415.551 228.35 415.752 229.245C416.037 230.183 415.269 231.262 414.28 231.264C413.393 231.367 412.555 230.6 412.547 229.718C412.506 229.016 412.978 228.325 413.652 228.111Z" fill="#2A2651"/>
<path fill-rule="evenodd" clip-rule="evenodd" d="M423.158 228.109C424.022 227.798 425.06 228.376 425.245 229.275C425.517 230.237 424.688 231.327 423.673 231.265C422.816 231.323 422.039 230.566 422.033 229.718C421.987 229.009 422.475 228.312 423.158 228.109Z" fill="#2A2651"/>
<path fill-rule="evenodd" clip-rule="evenodd" d="M224.034 228.665C224.769 228.305 225.686 229.023 225.518 229.82C225.447 230.656 224.289 231.02 223.717 230.436C223.147 229.949 223.333 228.921 224.034 228.665Z" fill="#2A2651"/>
<path fill-rule="evenodd" clip-rule="evenodd" d="M404.46 229.183C404.807 228.983 405.278 229.329 405.208 229.721C405.19 230.106 404.696 230.286 404.396 230.09C404.067 229.897 404.097 229.322 404.46 229.183Z" fill="#2A2651"/>
<path fill-rule="evenodd" clip-rule="evenodd" d="M442.218 229.72C442.11 229.288 442.768 229.046 442.986 229.423C443.151 229.654 442.975 229.898 442.825 230.078C442.583 230.054 442.231 230.036 442.218 229.72Z" fill="#2A2651"/>
<path fill-rule="evenodd" clip-rule="evenodd" d="M186.319 229.438C186.603 229.173 187.008 229.663 186.694 229.881C186.423 230.123 186.029 229.662 186.319 229.438Z" fill="#2A2651"/>
<path fill-rule="evenodd" clip-rule="evenodd" d="M394.894 229.602C394.9 229.349 395.274 229.255 395.429 229.434C395.564 229.557 395.481 229.735 395.46 229.888C395.382 229.917 395.228 229.973 395.151 230.001C395.024 229.896 394.83 229.797 394.894 229.602Z" fill="#2A2651"/>
<path fill-rule="evenodd" clip-rule="evenodd" d="M394.29 234.724C396.177 234.312 398.252 235.261 399.152 236.968C400.2 238.823 399.687 241.393 397.96 242.664C396.38 243.934 393.937 243.905 392.38 242.615C390.942 241.496 390.362 239.473 390.917 237.752C391.389 236.238 392.727 235.026 394.29 234.724Z" fill="#2A2651"/>
<path fill-rule="evenodd" clip-rule="evenodd" d="M195.525 234.973C197.462 234.712 199.453 236.008 199.994 237.882C200.596 239.706 199.733 241.85 198.043 242.762C196.369 243.727 194.056 243.325 192.822 241.835C191.6 240.454 191.488 238.246 192.557 236.745C193.228 235.763 194.339 235.101 195.525 234.973Z" fill="#2A2651"/>
<path fill-rule="evenodd" clip-rule="evenodd" d="M366.244 234.976C367.542 234.809 368.901 235.304 369.794 236.257C371.018 237.521 371.28 239.586 370.414 241.117C369.574 242.719 367.617 243.605 365.853 243.194C364.512 242.915 363.349 241.93 362.855 240.657C362.28 239.218 362.577 237.472 363.63 236.328C364.299 235.58 365.245 235.091 366.244 234.976Z" fill="#2A2651"/>
<path fill-rule="evenodd" clip-rule="evenodd" d="M375.508 234.955C376.282 234.832 377.093 234.904 377.822 235.201C379.094 235.704 380.078 236.866 380.366 238.202C380.572 239.269 380.424 240.423 379.831 241.349C378.874 242.935 376.803 243.726 375.03 243.169C373.15 242.656 371.812 240.711 372.014 238.775C372.125 236.9 373.653 235.242 375.508 234.955Z" fill="#2A2651"/>
<path fill-rule="evenodd" clip-rule="evenodd" d="M186.011 235.189C187.664 234.955 189.4 235.885 190.096 237.405C190.63 238.512 190.608 239.872 190.032 240.962C189.533 241.907 188.64 242.641 187.607 242.927C186.166 243.342 184.511 242.876 183.53 241.738C182.549 240.64 182.264 238.981 182.835 237.624C183.353 236.321 184.612 235.347 186.011 235.189Z" fill="#2A2651"/>
<path fill-rule="evenodd" clip-rule="evenodd" d="M385.146 235.198C386.315 235.028 387.557 235.397 388.418 236.211C389.771 237.423 390.09 239.597 389.132 241.142C388.315 242.571 386.552 243.333 384.943 243.006C383.648 242.763 382.515 241.82 382.032 240.599C381.451 239.152 381.794 237.373 382.93 236.288C383.53 235.704 384.315 235.312 385.146 235.198Z" fill="#2A2651"/>
<path fill-rule="evenodd" clip-rule="evenodd" d="M422.945 236.295C423.994 236.039 425.178 236.379 425.875 237.219C426.645 238.086 426.794 239.43 426.254 240.453C425.877 241.198 425.158 241.767 424.341 241.95C423.446 242.171 422.449 241.933 421.755 241.329C420.939 240.637 420.551 239.472 420.824 238.435C421.054 237.399 421.912 236.544 422.945 236.295Z" fill="#2A2651"/>
<path fill-rule="evenodd" clip-rule="evenodd" d="M404.127 237.478C405.143 237.104 406.375 237.874 406.409 238.969C406.532 239.912 405.726 240.833 404.775 240.842C403.89 240.918 403.036 240.197 402.967 239.314C402.861 238.529 403.368 237.715 404.127 237.478Z" fill="#2A2651"/>
<path fill-rule="evenodd" clip-rule="evenodd" d="M205.132 237.61C206.052 237.358 207.058 238.139 207.036 239.092C207.077 239.922 206.34 240.677 205.509 240.663C204.74 240.694 204.018 240.077 203.949 239.31C203.834 238.549 204.374 237.765 205.132 237.61Z" fill="#2A2651"/>
<path fill-rule="evenodd" clip-rule="evenodd" d="M433.11 238.036C433.919 237.987 434.509 238.948 434.091 239.644C433.715 240.396 432.471 240.352 432.164 239.567C431.833 238.895 432.363 238.044 433.11 238.036Z" fill="#2A2651"/>
<path fill-rule="evenodd" clip-rule="evenodd" d="M357.161 238.148C357.853 238.057 358.441 238.82 358.168 239.468C357.932 240.189 356.829 240.304 356.447 239.653C356.037 239.08 356.454 238.193 357.161 238.148Z" fill="#2A2651"/>
<path fill-rule="evenodd" clip-rule="evenodd" d="M414.104 238.146C414.816 238.066 415.394 238.897 415.055 239.535C414.778 240.198 413.749 240.277 413.372 239.671C412.945 239.091 413.372 238.167 414.104 238.146Z" fill="#2A2651"/>
<path fill-rule="evenodd" clip-rule="evenodd" d="M177.032 238.486C177.532 238.465 177.845 239.109 177.533 239.492C177.281 239.869 176.642 239.805 176.461 239.395C176.255 238.996 176.578 238.468 177.032 238.486Z" fill="#2A2651"/>
<path fill-rule="evenodd" clip-rule="evenodd" d="M375.407 244.118C376.568 243.921 377.811 244.147 378.786 244.824C380.311 245.833 381.093 247.799 380.67 249.577C380.259 251.594 378.311 253.169 376.242 253.109C374.418 253.168 372.661 251.96 372.008 250.271C371.262 248.48 371.835 246.254 373.364 245.053C373.949 244.572 374.662 244.255 375.407 244.118Z" fill="#2A2651"/>
<path fill-rule="evenodd" clip-rule="evenodd" d="M394.307 244.105C396.221 243.696 398.321 244.672 399.226 246.407C400.199 248.134 399.854 250.475 398.409 251.84C396.903 253.381 394.269 253.579 392.541 252.298C390.961 251.206 390.241 249.069 390.827 247.243C391.294 245.666 392.685 244.407 394.307 244.105Z" fill="#2A2651"/>
<path fill-rule="evenodd" clip-rule="evenodd" d="M403.809 244.21C405.059 243.964 406.415 244.26 407.422 245.051C408.693 246.003 409.352 247.672 409.11 249.235C408.914 250.656 407.975 251.95 406.681 252.576C404.915 253.479 402.574 253.026 401.302 251.499C400.076 250.121 399.877 247.963 400.8 246.374C401.425 245.263 402.553 244.447 403.809 244.21Z" fill="#2A2651"/>
<path fill-rule="evenodd" clip-rule="evenodd" d="M413.444 244.235C414.642 244.041 415.921 244.339 416.88 245.094C418.225 246.117 418.877 247.935 418.479 249.576C418.058 251.566 416.096 253.095 414.054 252.979C411.891 252.994 409.95 251.165 409.777 249.027C409.583 247.3 410.519 245.519 412.06 244.709C412.489 244.474 412.959 244.316 413.444 244.235Z" fill="#2A2651"/>
<path fill-rule="evenodd" clip-rule="evenodd" d="M423.279 244.665C425.224 244.431 427.172 245.868 427.523 247.79C427.892 249.426 427.055 251.23 425.578 252.025C424.347 252.716 422.745 252.674 421.556 251.913C420.192 251.084 419.452 249.366 419.795 247.808C420.093 246.144 421.59 244.799 423.279 244.665Z" fill="#2A2651"/>
<path fill-rule="evenodd" clip-rule="evenodd" d="M385.011 244.764C386.207 244.558 387.492 244.896 388.375 245.743C389.526 246.783 389.918 248.54 389.35 249.979C388.899 251.179 387.808 252.113 386.55 252.377C385.754 252.514 384.906 252.479 384.162 252.146C382.583 251.493 381.587 249.711 381.868 248.03C382.063 246.413 383.407 245.032 385.011 244.764Z" fill="#2A2651"/>
<path fill-rule="evenodd" clip-rule="evenodd" d="M432.337 245.321C433.312 245.091 434.391 245.293 435.186 245.91C436.047 246.548 436.553 247.622 436.504 248.691C436.49 249.873 435.774 251.007 434.727 251.55C433.352 252.299 431.477 251.932 430.52 250.687C429.834 249.849 429.601 248.665 429.918 247.63C430.236 246.503 431.194 245.588 432.337 245.321Z" fill="#2A2651"/>
<path fill-rule="evenodd" clip-rule="evenodd" d="M452.139 245.99C453.132 245.832 454.199 246.298 454.738 247.149C455.333 248.035 455.3 249.284 454.66 250.138C454.175 250.805 453.361 251.217 452.535 251.211C451.574 251.213 450.63 250.654 450.201 249.794C449.69 248.835 449.856 247.56 450.626 246.786C451.019 246.356 451.562 246.077 452.139 245.99Z" fill="#2A2651"/>
<path fill-rule="evenodd" clip-rule="evenodd" d="M442.391 247.186C443.304 246.991 444.215 247.88 444.032 248.795C443.946 249.602 443.067 250.171 442.292 249.959C441.668 249.819 441.197 249.22 441.214 248.582C441.194 247.907 441.726 247.288 442.391 247.186Z" fill="#2A2651"/>
<path fill-rule="evenodd" clip-rule="evenodd" d="M366.429 247.856C366.926 247.638 367.572 248.025 367.525 248.589C367.57 249.208 366.783 249.581 366.3 249.236C365.795 248.923 365.872 248.068 366.429 247.856Z" fill="#2A2651"/>
<path fill-rule="evenodd" clip-rule="evenodd" d="M176.937 247.962C177.413 247.865 177.817 248.42 177.6 248.848C177.438 249.243 176.842 249.338 176.569 249.009C176.219 248.673 176.45 248.004 176.937 247.962Z" fill="#2A2651"/>
<path fill-rule="evenodd" clip-rule="evenodd" d="M470.813 248.07C471.182 247.889 471.694 248.145 471.665 248.588C471.703 249.076 471.02 249.347 470.694 249.003C470.396 248.754 470.482 248.249 470.813 248.07Z" fill="#2A2651"/>
<path fill-rule="evenodd" clip-rule="evenodd" d="M158.015 248.294C158.343 248.223 158.49 248.775 158.146 248.857C157.77 249.004 157.615 248.333 158.015 248.294Z" fill="#2A2651"/>
<path fill-rule="evenodd" clip-rule="evenodd" d="M167.168 248.575C167.291 248.457 167.373 248.207 167.589 248.271C167.935 248.293 167.942 248.869 167.594 248.893C167.371 248.955 167.288 248.7 167.168 248.575Z" fill="#2A2651"/>
<path fill-rule="evenodd" clip-rule="evenodd" d="M186.312 248.269C186.708 247.988 187.134 248.677 186.698 248.896C186.309 249.175 185.905 248.496 186.312 248.269Z" fill="#2A2651"/>
<path fill-rule="evenodd" clip-rule="evenodd" d="M384.797 253.602C386.046 253.346 387.406 253.629 388.427 254.399C389.856 255.438 390.571 257.344 390.15 259.062C389.73 261.062 387.806 262.622 385.751 262.578C383.839 262.643 382.003 261.323 381.411 259.518C380.819 257.815 381.341 255.782 382.734 254.618C383.315 254.106 384.037 253.757 384.797 253.602Z" fill="#2A2651"/>
<path fill-rule="evenodd" clip-rule="evenodd" d="M422.836 253.93C424.045 253.697 425.357 253.994 426.312 254.785C427.806 255.948 428.295 258.171 427.458 259.865C426.665 261.577 424.63 262.584 422.784 262.154C420.903 261.792 419.404 259.989 419.469 258.067C419.384 256.108 420.915 254.274 422.836 253.93Z" fill="#2A2651"/>
<path fill-rule="evenodd" clip-rule="evenodd" d="M403.927 254.265C404.751 254.124 405.628 254.202 406.385 254.577C407.444 255.085 408.239 256.103 408.471 257.253C408.611 258.018 408.56 258.828 408.251 259.548C407.725 260.821 406.468 261.757 405.091 261.885C403.342 262.098 401.549 260.953 401.022 259.273C400.476 257.705 401.079 255.826 402.461 254.892C402.894 254.578 403.401 254.372 403.927 254.265Z" fill="#2A2651"/>
<path fill-rule="evenodd" clip-rule="evenodd" d="M394.536 254.381C395.714 254.172 396.98 254.542 397.828 255.393C398.98 256.497 399.265 258.363 398.518 259.768C397.967 260.829 396.883 261.6 395.69 261.741C394.115 261.975 392.465 261.068 391.813 259.622C391.341 258.594 391.349 257.352 391.879 256.346C392.392 255.323 393.407 254.577 394.536 254.381Z" fill="#2A2651"/>
<path fill-rule="evenodd" clip-rule="evenodd" d="M441.962 254.594C443.134 254.369 444.412 254.765 445.216 255.655C446.489 256.957 446.452 259.255 445.139 260.516C443.901 261.84 441.621 261.906 440.293 260.682C438.967 259.558 438.723 257.422 439.747 256.025C440.27 255.291 441.071 254.759 441.962 254.594Z" fill="#2A2651"/>
<path fill-rule="evenodd" clip-rule="evenodd" d="M375.846 256.248C376.751 256.039 377.758 256.621 377.995 257.525C378.312 258.482 377.669 259.614 376.678 259.826C375.771 260.071 374.741 259.518 374.481 258.613C374.119 257.621 374.807 256.437 375.846 256.248Z" fill="#2A2651"/>
<path fill-rule="evenodd" clip-rule="evenodd" d="M470.599 256.359C471.488 256.085 472.513 256.625 472.769 257.52C473.085 258.427 472.501 259.515 471.562 259.741C470.585 260.045 469.449 259.32 469.351 258.298C469.206 257.455 469.769 256.574 470.599 256.359Z" fill="#2A2651"/>
<path fill-rule="evenodd" clip-rule="evenodd" d="M176.816 256.461C177.749 256.306 178.673 257.12 178.634 258.063C178.649 259.002 177.709 259.81 176.778 259.628C175.947 259.519 175.31 258.673 175.441 257.846C175.504 257.14 176.112 256.54 176.816 256.461Z" fill="#2A2651"/>
<path fill-rule="evenodd" clip-rule="evenodd" d="M167.522 256.573C168.498 256.53 169.286 257.598 168.94 258.511C168.699 259.323 167.705 259.74 166.943 259.392C166.275 259.114 165.908 258.302 166.133 257.618C166.307 257.017 166.898 256.583 167.522 256.573Z" fill="#2A2651"/>
<path fill-rule="evenodd" clip-rule="evenodd" d="M413.857 257.102C414.48 256.889 415.22 257.391 415.164 258.067C415.206 258.808 414.272 259.311 413.661 258.904C412.941 258.525 413.064 257.311 413.857 257.102Z" fill="#2A2651"/>
<path fill-rule="evenodd" clip-rule="evenodd" d="M461.309 257.23C461.895 257 462.587 257.556 462.461 258.18C462.396 258.795 461.605 259.123 461.11 258.766C460.533 258.405 460.656 257.431 461.309 257.23Z" fill="#2A2651"/>
<path fill-rule="evenodd" clip-rule="evenodd" d="M433.013 257.351C433.524 257.228 434.004 257.779 433.82 258.272C433.666 258.84 432.779 258.913 432.524 258.393C432.277 257.995 432.551 257.421 433.013 257.351Z" fill="#2A2651"/>
<path fill-rule="evenodd" clip-rule="evenodd" d="M138.888 257.785C139.218 257.555 139.585 258.037 139.296 258.297C138.974 258.564 138.554 258.037 138.888 257.785Z" fill="#2A2651"/>
<path fill-rule="evenodd" clip-rule="evenodd" d="M413.166 263.167C415.041 262.701 417.15 263.622 418.069 265.32C419.09 267.06 418.712 269.467 417.195 270.803C416.642 271.338 415.925 271.632 415.218 271.898C417.046 272.286 418.627 273.69 419.139 275.496C419.742 277.448 419.057 279.715 417.449 280.986C415.743 282.412 413.1 282.528 411.273 281.263C409.593 280.158 408.687 278.017 409.079 276.047C409.425 273.965 411.187 272.225 413.272 271.884C411.336 271.518 409.786 269.742 409.714 267.773C409.538 265.665 411.095 263.599 413.166 263.167Z" fill="#2A2651"/>
<path fill-rule="evenodd" clip-rule="evenodd" d="M422.844 263.098C424.66 262.745 426.626 263.633 427.54 265.241C428.608 266.989 428.251 269.44 426.718 270.804C425.166 272.296 422.522 272.394 420.86 271.029C419.365 269.871 418.76 267.732 419.436 265.967C419.962 264.503 421.306 263.364 422.844 263.098Z" fill="#2A2651"/>
<path fill-rule="evenodd" clip-rule="evenodd" d="M442.409 263.527C444.314 263.385 446.178 264.795 446.54 266.669C446.943 268.393 446.031 270.312 444.428 271.076C443.318 271.644 441.942 271.635 440.831 271.078C439.82 270.565 439.031 269.615 438.762 268.512C438.369 267.038 438.904 265.371 440.103 264.42C440.75 263.887 441.571 263.58 442.409 263.527Z" fill="#2A2651"/>
<path fill-rule="evenodd" clip-rule="evenodd" d="M451.351 263.518C452.579 263.283 453.912 263.634 454.838 264.482C456.04 265.519 456.491 267.29 455.989 268.786C455.684 269.734 455.008 270.555 454.141 271.046C452.929 271.742 451.351 271.749 450.132 271.066C448.67 270.281 447.818 268.544 448.088 266.911C448.307 265.24 449.688 263.807 451.351 263.518Z" fill="#2A2651"/>
<path fill-rule="evenodd" clip-rule="evenodd" d="M404.045 263.867C405.012 263.707 406.042 263.917 406.84 264.496C407.79 265.156 408.378 266.287 408.397 267.439C408.444 268.914 407.511 270.356 406.142 270.917C405.06 271.375 403.754 271.29 402.754 270.671C402.188 270.33 401.725 269.828 401.412 269.25C400.822 268.157 400.843 266.764 401.458 265.686C402 264.743 402.963 264.043 404.045 263.867Z" fill="#2A2651"/>
<path fill-rule="evenodd" clip-rule="evenodd" d="M166.983 265.514C167.483 265.41 168.035 265.419 168.494 265.669C169.121 265.982 169.565 266.634 169.607 267.336C169.702 268.234 169.133 269.155 168.275 269.452C167.239 269.865 165.949 269.286 165.592 268.228C165.16 267.14 165.845 265.797 166.983 265.514Z" fill="#2A2651"/>
<path fill-rule="evenodd" clip-rule="evenodd" d="M432.658 265.499C433.445 265.32 434.333 265.6 434.811 266.267C435.433 267.08 435.332 268.357 434.552 269.035C433.799 269.768 432.469 269.763 431.724 269.023C431.003 268.384 430.869 267.221 431.38 266.417C431.666 265.963 432.127 265.615 432.658 265.499Z" fill="#2A2651"/>
<path fill-rule="evenodd" clip-rule="evenodd" d="M394.854 265.732C395.857 265.511 396.94 266.299 397.007 267.329C397.126 268.284 396.355 269.25 395.386 269.309C394.379 269.447 393.375 268.579 393.395 267.562C393.339 266.697 394.005 265.885 394.854 265.732Z" fill="#2A2651"/>
<path fill-rule="evenodd" clip-rule="evenodd" d="M157.904 265.839C158.825 265.731 159.73 266.508 159.736 267.438C159.814 268.431 158.848 269.335 157.858 269.18C156.923 269.101 156.205 268.129 156.398 267.215C156.515 266.484 157.167 265.895 157.904 265.839Z" fill="#2A2651"/>
<path fill-rule="evenodd" clip-rule="evenodd" d="M385.241 266.4C385.86 266.12 386.66 266.477 386.862 267.126C387.089 267.737 386.711 268.485 386.081 268.662C385.441 268.891 384.661 268.452 384.543 267.783C384.403 267.232 384.707 266.608 385.241 266.4Z" fill="#2A2651"/>
<path fill-rule="evenodd" clip-rule="evenodd" d="M148.268 266.702C148.813 266.476 149.497 266.945 149.43 267.543C149.457 268.218 148.56 268.629 148.05 268.201C147.505 267.839 147.64 266.894 148.268 266.702Z" fill="#2A2651"/>
<path fill-rule="evenodd" clip-rule="evenodd" d="M461.526 267.159C461.755 267.105 462.023 267.299 461.966 267.553C461.963 267.917 461.37 268.002 461.271 267.656C461.148 267.459 461.31 267.188 461.526 267.159Z" fill="#2A2651"/>
<path fill-rule="evenodd" clip-rule="evenodd" d="M451.149 272.92C451.993 272.726 452.902 272.786 453.707 273.117C454.915 273.599 455.858 274.688 456.17 275.948C456.609 277.601 455.909 279.482 454.474 280.425C452.806 281.605 450.286 281.292 448.968 279.727C447.668 278.291 447.59 275.946 448.801 274.433C449.378 273.679 450.219 273.131 451.149 272.92Z" fill="#2A2651"/>
<path fill-rule="evenodd" clip-rule="evenodd" d="M432.461 273.019C434.24 272.684 436.146 273.711 436.842 275.379C437.266 276.362 437.275 277.518 436.866 278.509C436.374 279.723 435.247 280.664 433.956 280.907C432.282 281.284 430.429 280.432 429.625 278.921C428.762 277.416 429.041 275.37 430.281 274.154C430.866 273.562 431.639 273.161 432.461 273.019Z" fill="#2A2651"/>
<path fill-rule="evenodd" clip-rule="evenodd" d="M442.076 273.027C443.355 272.836 444.708 273.326 445.58 274.277C446.853 275.615 446.979 277.846 445.87 279.321C444.893 280.708 442.981 281.316 441.377 280.766C440.167 280.375 439.174 279.368 438.811 278.153C438.343 276.67 438.83 274.941 440.032 273.945C440.606 273.45 441.324 273.131 442.076 273.027Z" fill="#2A2651"/>
<path fill-rule="evenodd" clip-rule="evenodd" d="M423.165 273.123C424.88 272.875 426.669 273.924 427.28 275.544C427.75 276.734 427.6 278.158 426.85 279.203C426.243 280.073 425.267 280.683 424.21 280.819C422.716 281.056 421.14 280.316 420.354 279.033C419.658 277.928 419.579 276.468 420.15 275.295C420.702 274.126 421.876 273.275 423.165 273.123Z" fill="#2A2651"/>
<path fill-rule="evenodd" clip-rule="evenodd" d="M147.955 273.996C149.015 273.792 150.172 274.145 150.872 274.978C151.924 276.129 151.845 278.096 150.7 279.158C149.629 280.251 147.701 280.308 146.571 279.275C145.745 278.584 145.367 277.438 145.578 276.389C145.792 275.209 146.777 274.22 147.955 273.996Z" fill="#2A2651"/>
<path fill-rule="evenodd" clip-rule="evenodd" d="M157.469 274.23C158.151 274.096 158.886 274.197 159.488 274.555C160.348 275.059 160.916 276.043 160.861 277.047C160.874 278.31 159.883 279.479 158.649 279.72C157.732 279.929 156.719 279.628 156.061 278.959C155.342 278.246 155.053 277.129 155.364 276.164C155.639 275.196 156.485 274.43 157.469 274.23Z" fill="#2A2651"/>
<path fill-rule="evenodd" clip-rule="evenodd" d="M461.532 274.664C462.337 274.64 463.147 275.06 463.566 275.753C464.097 276.58 464.011 277.747 463.357 278.483C462.638 279.361 461.238 279.542 460.311 278.893C459.467 278.35 459.083 277.229 459.395 276.282C459.663 275.356 460.574 274.694 461.532 274.664Z" fill="#2A2651"/>
<path fill-rule="evenodd" clip-rule="evenodd" d="M394.86 275.764C395.656 275.508 396.55 276.218 396.459 277.052C396.451 277.848 395.554 278.454 394.809 278.175C394.057 277.957 393.707 276.995 394.111 276.337C394.272 276.058 394.549 275.854 394.86 275.764Z" fill="#2A2651"/>
<path fill-rule="evenodd" clip-rule="evenodd" d="M404.353 275.761C405.183 275.504 406.092 276.283 405.94 277.142C405.859 278.098 404.57 278.595 403.869 277.936C403.105 277.345 403.4 275.968 404.353 275.761Z" fill="#2A2651"/>
<path fill-rule="evenodd" clip-rule="evenodd" d="M139.003 276.536C139.381 276.447 139.667 276.909 139.465 277.225C139.271 277.557 138.667 277.436 138.65 277.041C138.602 276.811 138.769 276.567 139.003 276.536Z" fill="#2A2651"/>
<path fill-rule="evenodd" clip-rule="evenodd" d="M432.569 282.176C434.568 281.867 436.656 283.169 437.245 285.102C437.895 286.977 437.037 289.225 435.288 290.178C433.524 291.219 431.046 290.77 429.788 289.146C428.517 287.627 428.525 285.231 429.804 283.718C430.484 282.878 431.495 282.318 432.569 282.176Z" fill="#2A2651"/>
<path fill-rule="evenodd" clip-rule="evenodd" d="M422.822 282.489C424.005 282.245 425.296 282.537 426.229 283.315C427.743 284.504 428.157 286.817 427.17 288.464C426.257 290.106 424.121 290.907 422.352 290.266C420.543 289.698 419.345 287.73 419.652 285.866C419.864 284.225 421.191 282.804 422.822 282.489Z" fill="#2A2651"/>
<path fill-rule="evenodd" clip-rule="evenodd" d="M441.846 282.827C443.091 282.548 444.463 282.967 445.332 283.903C446.373 284.977 446.633 286.701 445.978 288.042C445.509 289.013 444.599 289.773 443.548 290.027C442.413 290.312 441.153 290.042 440.257 289.287C439.021 288.298 438.59 286.479 439.201 285.028C439.656 283.926 440.67 283.064 441.846 282.827Z" fill="#2A2651"/>
<path fill-rule="evenodd" clip-rule="evenodd" d="M413.989 283.163C414.772 283.123 415.572 283.365 416.192 283.851C417.195 284.608 417.681 285.979 417.371 287.196C417.16 288.15 416.48 288.98 415.599 289.399C414.255 290.065 412.482 289.662 411.581 288.462C410.833 287.527 410.678 286.176 411.177 285.092C411.661 283.993 412.787 283.223 413.989 283.163Z" fill="#2A2651"/>
<path fill-rule="evenodd" clip-rule="evenodd" d="M451.247 283.386C452.348 283.062 453.613 283.401 454.403 284.232C455.003 284.834 455.325 285.689 455.295 286.535C455.275 287.629 454.639 288.694 453.67 289.212C453.015 289.595 452.221 289.683 451.482 289.553C450.494 289.356 449.612 288.668 449.212 287.743C448.84 286.914 448.84 285.933 449.229 285.111C449.604 284.277 450.365 283.633 451.247 283.386Z" fill="#2A2651"/>
<path fill-rule="evenodd" clip-rule="evenodd" d="M148.4 284.371C149.36 284.281 150.331 284.943 150.569 285.88C150.821 286.727 150.454 287.721 149.695 288.184C149.13 288.554 148.378 288.608 147.759 288.35C146.958 288.029 146.43 287.167 146.501 286.311C146.531 285.307 147.404 284.441 148.4 284.371Z" fill="#2A2651"/>
<path fill-rule="evenodd" clip-rule="evenodd" d="M138.563 284.49C139.51 284.229 140.586 284.739 140.951 285.655C141.22 286.293 141.139 287.074 140.723 287.635C140.243 288.307 139.321 288.623 138.528 288.382C137.677 288.159 137.024 287.313 137.079 286.427C137.029 285.533 137.707 284.704 138.563 284.49Z" fill="#2A2651"/>
<path fill-rule="evenodd" clip-rule="evenodd" d="M404.361 285.143C405.204 284.901 406.12 285.652 406.022 286.528C406.01 287.35 405.109 287.972 404.332 287.731C403.595 287.551 403.143 286.675 403.43 285.974C403.576 285.565 403.937 285.245 404.361 285.143Z" fill="#2A2651"/>
<path fill-rule="evenodd" clip-rule="evenodd" d="M461.528 286.134C461.899 286.031 462.079 286.624 461.711 286.746C461.301 286.892 461.104 286.226 461.528 286.134Z" fill="#2A2651"/>
<path fill-rule="evenodd" clip-rule="evenodd" d="M432.334 291.439C433.527 291.244 434.802 291.488 435.787 292.208C437.261 293.223 438 295.165 437.584 296.903C437.171 298.907 435.241 300.478 433.182 300.435C431.241 300.504 429.382 299.147 428.816 297.301C428.241 295.581 428.822 293.55 430.242 292.413C430.835 291.909 431.568 291.577 432.334 291.439Z" fill="#2A2651"/>
<path fill-rule="evenodd" clip-rule="evenodd" d="M441.956 291.656C443.769 291.343 445.703 292.332 446.497 293.99C447.099 295.2 447.085 296.697 446.46 297.895C445.977 298.82 445.147 299.563 444.168 299.931C442.483 300.584 440.421 300.053 439.294 298.635C438.129 297.258 437.995 295.138 438.973 293.624C439.62 292.58 440.735 291.837 441.956 291.656Z" fill="#2A2651"/>
<path fill-rule="evenodd" clip-rule="evenodd" d="M423.27 292.649C424.258 292.526 425.294 292.885 425.995 293.591C426.462 294.074 426.796 294.693 426.901 295.361C427.141 296.647 426.504 298.038 425.376 298.707C424.107 299.504 422.305 299.278 421.283 298.179C420.436 297.301 420.14 295.942 420.565 294.797C420.959 293.642 422.057 292.781 423.27 292.649Z" fill="#2A2651"/>
<path fill-rule="evenodd" clip-rule="evenodd" d="M451.568 293.962C452.489 293.689 453.568 294.168 453.953 295.053C454.442 296.027 453.958 297.334 452.948 297.751C451.97 298.209 450.679 297.737 450.269 296.732C449.753 295.661 450.405 294.243 451.568 293.962Z" fill="#2A2651"/>
<path fill-rule="evenodd" clip-rule="evenodd" d="M470.826 294.756C471.452 294.6 472.147 295.037 472.249 295.679C472.416 296.369 471.817 297.107 471.106 297.084C470.507 297.11 469.958 296.616 469.913 296.025C469.838 295.452 470.255 294.866 470.826 294.756Z" fill="#2A2651"/>
<path fill-rule="evenodd" clip-rule="evenodd" d="M139.007 294.853C139.594 294.803 140.15 295.316 140.139 295.908C140.154 296.51 139.569 297.042 138.965 296.946C138.399 296.903 137.956 296.341 138.044 295.782C138.08 295.283 138.521 294.896 139.007 294.853Z" fill="#2A2651"/>
<path fill-rule="evenodd" clip-rule="evenodd" d="M414.094 295.069C414.747 294.97 415.249 295.76 414.909 296.316C414.633 296.855 413.793 296.891 413.475 296.379C413.106 295.886 413.479 295.1 414.094 295.069Z" fill="#2A2651"/>
<path fill-rule="evenodd" clip-rule="evenodd" d="M480.303 295.165C480.901 294.925 481.555 295.564 481.323 296.162C481.157 296.75 480.265 296.875 479.936 296.37C479.618 295.971 479.825 295.325 480.303 295.165Z" fill="#2A2651"/>
<path fill-rule="evenodd" clip-rule="evenodd" d="M129.497 295.289C129.865 295.216 130.255 295.522 130.225 295.907C130.268 296.419 129.567 296.731 129.195 296.392C128.782 296.085 128.979 295.337 129.497 295.289Z" fill="#2A2651"/>
<path fill-rule="evenodd" clip-rule="evenodd" d="M461.427 295.303C461.815 295.182 462.262 295.493 462.23 295.912C462.261 296.421 461.579 296.724 461.203 296.398C460.814 296.106 460.95 295.416 461.427 295.303Z" fill="#2A2651"/>
<path fill-rule="evenodd" clip-rule="evenodd" d="M451.591 300.943C453.441 300.695 455.37 301.748 456.151 303.442C457.036 305.229 456.532 307.573 454.962 308.815C453.311 310.224 450.622 310.142 449.064 308.632C447.616 307.33 447.239 305.043 448.14 303.33C448.796 302.025 450.135 301.101 451.591 300.943Z" fill="#2A2651"/>
<path fill-rule="evenodd" clip-rule="evenodd" d="M470.385 300.938C472.361 300.595 474.46 301.75 475.223 303.599C476.03 305.41 475.45 307.711 473.862 308.907C472.288 310.177 469.85 310.161 468.285 308.884C466.809 307.742 466.204 305.638 466.844 303.888C467.36 302.352 468.779 301.174 470.385 300.938Z" fill="#2A2651"/>
<path fill-rule="evenodd" clip-rule="evenodd" d="M460.758 301.258C461.861 301.032 463.057 301.264 463.986 301.908C464.934 302.556 465.6 303.603 465.764 304.741C466.002 306.255 465.342 307.864 464.093 308.759C462.946 309.611 461.355 309.806 460.031 309.269C458.406 308.637 457.283 306.916 457.404 305.171C457.452 303.305 458.918 301.597 460.758 301.258Z" fill="#2A2651"/>
<path fill-rule="evenodd" clip-rule="evenodd" d="M432.452 301.361C433.222 301.245 434.027 301.319 434.748 301.628C436.09 302.185 437.072 303.513 437.2 304.961C437.425 306.785 436.224 308.647 434.477 309.217C432.878 309.789 430.961 309.23 429.934 307.88C428.719 306.376 428.807 303.995 430.156 302.603C430.757 301.954 431.578 301.51 432.452 301.361Z" fill="#2A2651"/>
<path fill-rule="evenodd" clip-rule="evenodd" d="M442.078 301.606C443.194 301.45 444.377 301.789 445.206 302.559C446.364 303.592 446.76 305.352 446.174 306.784C445.77 307.813 444.889 308.637 443.84 308.982C442.899 309.288 441.841 309.225 440.953 308.787C440.004 308.337 439.278 307.466 438.977 306.465C438.711 305.554 438.785 304.544 439.208 303.691C439.749 302.585 440.852 301.77 442.078 301.606Z" fill="#2A2651"/>
<path fill-rule="evenodd" clip-rule="evenodd" d="M479.995 302.248C481.022 302.06 482.139 302.395 482.857 303.16C483.639 303.936 483.932 305.135 483.648 306.193C483.285 307.683 481.711 308.741 480.192 308.522C479.218 308.41 478.313 307.826 477.828 306.977C477.342 306.168 477.277 305.138 477.594 304.257C477.967 303.229 478.916 302.438 479.995 302.248Z" fill="#2A2651"/>
<path fill-rule="evenodd" clip-rule="evenodd" d="M119.888 304.897C120.186 304.752 120.593 304.942 120.629 305.284C120.73 305.696 120.216 306.059 119.861 305.831C119.491 305.661 119.504 305.045 119.888 304.897Z" fill="#2A2651"/>
<path fill-rule="evenodd" clip-rule="evenodd" d="M138.778 304.875C139.116 304.676 139.62 304.878 139.657 305.287C139.757 305.744 139.197 306.108 138.805 305.88C138.421 305.688 138.421 305.092 138.778 304.875Z" fill="#2A2651"/>
<path fill-rule="evenodd" clip-rule="evenodd" d="M423.379 305.017C423.629 304.81 424.057 304.972 424.099 305.296C424.17 305.615 423.8 305.933 423.499 305.786C423.177 305.69 423.13 305.21 423.379 305.017Z" fill="#2A2651"/>
<path fill-rule="evenodd" clip-rule="evenodd" d="M489.759 305.529C489.775 305.331 489.842 305.006 490.121 305.089C490.363 305.123 490.338 305.41 490.324 305.595C490.123 305.65 489.929 305.64 489.759 305.529Z" fill="#2A2651"/>
<path fill-rule="evenodd" clip-rule="evenodd" d="M110.452 305.203C110.662 304.967 111.023 305.327 110.799 305.528C110.601 305.763 110.236 305.427 110.452 305.203Z" fill="#2A2651"/>
<path fill-rule="evenodd" clip-rule="evenodd" d="M451.687 310.634C453.783 310.373 455.907 311.921 456.265 314.003C456.672 315.83 455.676 317.846 453.973 318.633C452.233 319.521 449.93 318.979 448.762 317.419C447.581 315.927 447.597 313.636 448.824 312.176C449.52 311.306 450.578 310.744 451.687 310.634Z" fill="#2A2651"/>
<path fill-rule="evenodd" clip-rule="evenodd" d="M480.112 310.637C482.027 310.393 483.997 311.633 484.583 313.471C485.209 315.216 484.511 317.312 482.957 318.33C481.256 319.537 478.693 319.201 477.365 317.594C476.083 316.16 476.004 313.846 477.169 312.32C477.858 311.382 478.951 310.756 480.112 310.637Z" fill="#2A2651"/>
<path fill-rule="evenodd" clip-rule="evenodd" d="M442.406 310.746C444.406 310.597 446.359 312.12 446.666 314.104C447.048 315.968 445.916 317.987 444.132 318.648C442.401 319.354 440.247 318.696 439.23 317.129C438.182 315.631 438.332 313.442 439.576 312.102C440.287 311.294 441.332 310.808 442.406 310.746Z" fill="#2A2651"/>
<path fill-rule="evenodd" clip-rule="evenodd" d="M460.969 310.738C462.811 310.426 464.772 311.519 465.449 313.261C466.196 314.998 465.554 317.189 463.978 318.24C462.34 319.422 459.852 319.15 458.525 317.624C457.216 316.237 457.089 313.933 458.233 312.41C458.877 311.52 459.876 310.896 460.969 310.738Z" fill="#2A2651"/>
<path fill-rule="evenodd" clip-rule="evenodd" d="M489.388 310.957C490.554 310.761 491.804 311.092 492.683 311.893C494.108 313.103 494.421 315.367 493.404 316.929C492.546 318.349 490.733 319.061 489.129 318.66C487.759 318.343 486.61 317.238 486.258 315.879C485.832 314.386 486.389 312.678 487.628 311.734C488.138 311.338 488.747 311.061 489.388 310.957Z" fill="#2A2651"/>
<path fill-rule="evenodd" clip-rule="evenodd" d="M470.368 311.179C471.53 310.971 472.792 311.289 473.647 312.122C474.804 313.165 475.151 314.97 474.49 316.376C473.976 317.541 472.818 318.393 471.549 318.529C470.411 318.683 469.216 318.269 468.421 317.443C467.357 316.394 467.062 314.684 467.67 313.33C468.146 312.23 469.186 311.398 470.368 311.179Z" fill="#2A2651"/>
<path fill-rule="evenodd" clip-rule="evenodd" d="M129.054 313.385C129.915 313.041 130.986 313.629 131.119 314.551C131.308 315.384 130.668 316.273 129.819 316.37C129.01 316.505 128.165 315.89 128.065 315.073C127.947 314.369 128.376 313.623 129.054 313.385Z" fill="#2A2651"/>
<path fill-rule="evenodd" clip-rule="evenodd" d="M138.576 314.705C138.674 314.206 139.486 314.189 139.592 314.693C139.717 315.055 139.386 315.323 139.071 315.407C138.771 315.314 138.469 315.05 138.576 314.705Z" fill="#2A2651"/>
<path fill-rule="evenodd" clip-rule="evenodd" d="M442.19 320.468C443.925 320.237 445.707 321.348 446.274 322.997C446.641 324.045 446.546 325.254 445.988 326.218C445.366 327.321 444.169 328.073 442.903 328.147C441.177 328.297 439.45 327.14 438.949 325.484C438.41 323.887 439.071 321.987 440.497 321.082C441.001 320.748 441.586 320.537 442.19 320.468Z" fill="#2A2651"/>
<path fill-rule="evenodd" clip-rule="evenodd" d="M461.312 320.453C462.983 320.302 464.671 321.374 465.229 322.957C465.587 323.93 465.54 325.051 465.084 325.986C464.568 327.054 463.535 327.86 462.365 328.081C460.708 328.444 458.889 327.561 458.152 326.039C457.505 324.782 457.629 323.168 458.475 322.033C459.13 321.126 460.191 320.531 461.312 320.453Z" fill="#2A2651"/>
<path fill-rule="evenodd" clip-rule="evenodd" d="M432.566 320.566C434.351 320.253 436.236 321.413 436.752 323.145C437.325 324.83 436.512 326.846 434.913 327.643C433.796 328.241 432.377 328.221 431.279 327.591C430.294 327.043 429.581 326.03 429.412 324.918C429.155 323.51 429.802 321.991 430.99 321.192C431.458 320.868 432.001 320.653 432.566 320.566Z" fill="#2A2651"/>
<path fill-rule="evenodd" clip-rule="evenodd" d="M451.348 321.219C452.342 320.977 453.455 321.226 454.22 321.916C454.919 322.523 455.327 323.447 455.296 324.373C455.289 325.472 454.645 326.531 453.687 327.065C453.01 327.463 452.183 327.546 451.424 327.4C450.221 327.148 449.223 326.132 449 324.927C448.628 323.324 449.74 321.576 451.348 321.219Z" fill="#2A2651"/>
<path fill-rule="evenodd" clip-rule="evenodd" d="M129.164 323.431C129.801 323.09 130.672 323.647 130.563 324.378C130.561 325.167 129.462 325.562 128.93 325.006C128.431 324.576 128.575 323.703 129.164 323.431Z" fill="#2A2651"/>
<path fill-rule="evenodd" clip-rule="evenodd" d="M413.761 323.42C414.399 323.1 415.231 323.653 415.145 324.372C415.134 325.123 414.146 325.534 413.579 325.073C413.015 324.665 413.114 323.69 413.761 323.42Z" fill="#2A2651"/>
<path fill-rule="evenodd" clip-rule="evenodd" d="M110.347 323.731C110.771 323.508 111.345 323.893 111.249 324.377C111.221 324.857 110.599 325.092 110.239 324.798C109.872 324.538 109.943 323.915 110.347 323.731Z" fill="#2A2651"/>
<path fill-rule="evenodd" clip-rule="evenodd" d="M432.788 329.502C434.465 329.343 436.174 330.273 436.941 331.77C437.61 333.037 437.592 334.647 436.868 335.888C436.374 336.763 435.557 337.447 434.612 337.786C433.042 338.365 431.145 337.937 430.02 336.689C428.6 335.248 428.479 332.776 429.724 331.188C430.443 330.225 431.587 329.598 432.788 329.502Z" fill="#2A2651"/>
<path fill-rule="evenodd" clip-rule="evenodd" d="M451.911 329.936C453.548 329.828 455.175 330.885 455.718 332.434C456.122 333.527 456.001 334.811 455.374 335.8C454.919 336.523 454.215 337.093 453.406 337.375C451.669 338.028 449.557 337.206 448.719 335.557C448.089 334.376 448.141 332.866 448.858 331.734C449.503 330.685 450.681 330 451.911 329.936Z" fill="#2A2651"/>
<path fill-rule="evenodd" clip-rule="evenodd" d="M423.609 331.376C424.522 331.352 425.423 331.894 425.813 332.723C426.283 333.647 426.041 334.863 425.258 335.543C424.5 336.245 423.273 336.35 422.403 335.8C421.498 335.269 421.05 334.096 421.363 333.098C421.623 332.111 422.591 331.389 423.609 331.376Z" fill="#2A2651"/>
<path fill-rule="evenodd" clip-rule="evenodd" d="M119.656 332.592C120.435 332.253 121.405 332.903 121.371 333.752C121.42 334.574 120.507 335.25 119.734 334.965C119.049 334.774 118.663 333.949 118.94 333.299C119.064 332.976 119.332 332.712 119.656 332.592Z" fill="#2A2651"/>
<path fill-rule="evenodd" clip-rule="evenodd" d="M139.005 332.583C139.863 332.495 140.567 333.502 140.155 334.27C139.81 335.127 138.454 335.167 138.051 334.34C137.612 333.625 138.167 332.61 139.005 332.583Z" fill="#2A2651"/>
<path fill-rule="evenodd" clip-rule="evenodd" d="M470.929 332.915C471.568 332.764 472.165 333.48 471.897 334.081C471.69 334.681 470.813 334.816 470.423 334.324C470.002 333.854 470.287 332.998 470.929 332.915Z" fill="#2A2651"/>
<path fill-rule="evenodd" clip-rule="evenodd" d="M404.686 333.023C405.282 333.001 405.661 333.79 405.255 334.231C404.937 334.658 404.2 334.55 404.012 334.058C403.788 333.593 404.175 333.014 404.686 333.023Z" fill="#2A2651"/>
<path fill-rule="evenodd" clip-rule="evenodd" d="M129.369 333.234C129.715 333.077 130.156 333.331 130.177 333.714C130.231 334.13 129.735 334.484 129.357 334.29C128.912 334.117 128.919 333.396 129.369 333.234Z" fill="#2A2651"/>
<path fill-rule="evenodd" clip-rule="evenodd" d="M442.388 333.326C442.69 333.142 443.144 333.384 443.121 333.749C443.182 334.137 442.667 334.409 442.364 334.184C442.043 334.007 442.063 333.485 442.388 333.326Z" fill="#2A2651"/>
<path fill-rule="evenodd" clip-rule="evenodd" d="M461.401 333.553C461.661 333.303 462.069 333.709 461.817 333.962C461.576 334.265 461.098 333.801 461.401 333.553Z" fill="#2A2651"/>
<path fill-rule="evenodd" clip-rule="evenodd" d="M413.428 339.097C414.525 338.914 415.698 339.145 416.605 339.8C418.081 340.803 418.737 342.794 418.19 344.484C417.818 345.693 416.861 346.709 415.674 347.155C414.039 347.794 412.035 347.281 410.933 345.912C409.785 344.569 409.65 342.49 410.603 341.006C411.225 340.015 412.27 339.295 413.428 339.097Z" fill="#2A2651"/>
<path fill-rule="evenodd" clip-rule="evenodd" d="M423.281 339.101C424.955 338.924 426.664 339.885 427.391 341.399C428.04 342.701 427.93 344.351 427.104 345.553C426.152 347.006 424.228 347.712 422.559 347.228C420.757 346.773 419.418 344.976 419.514 343.123C419.502 341.079 421.243 339.241 423.281 339.101Z" fill="#2A2651"/>
<path fill-rule="evenodd" clip-rule="evenodd" d="M441.964 339.321C442.782 339.204 443.64 339.3 444.385 339.673C445.374 340.154 446.149 341.067 446.445 342.129C446.819 343.394 446.509 344.838 445.632 345.83C444.616 347.026 442.856 347.503 441.373 346.986C440.295 346.639 439.396 345.798 438.964 344.756C438.498 343.619 438.577 342.259 439.218 341.206C439.792 340.21 440.833 339.514 441.964 339.321Z" fill="#2A2651"/>
<path fill-rule="evenodd" clip-rule="evenodd" d="M460.965 339.53C462.098 339.338 463.307 339.682 464.152 340.464C465.287 341.482 465.674 343.222 465.094 344.63C464.73 345.544 463.982 346.303 463.073 346.684C461.872 347.196 460.403 347.034 459.36 346.244C458.131 345.358 457.567 343.699 457.974 342.245C458.328 340.86 459.551 339.756 460.965 339.53Z" fill="#2A2651"/>
<path fill-rule="evenodd" clip-rule="evenodd" d="M385.577 340.422C386.477 340.38 387.39 340.788 387.94 341.506C388.659 342.4 388.716 343.75 388.106 344.716C387.561 345.617 386.471 346.141 385.427 346.019C384.503 345.94 383.647 345.359 383.227 344.538C382.756 343.665 382.802 342.544 383.347 341.715C383.822 340.953 384.683 340.467 385.577 340.422Z" fill="#2A2651"/>
<path fill-rule="evenodd" clip-rule="evenodd" d="M167.205 341.851C167.982 341.644 168.85 342.211 168.944 343.014C169.11 343.858 168.345 344.7 167.491 344.649C166.75 344.637 166.108 343.976 166.124 343.235C166.107 342.596 166.583 341.993 167.205 341.851Z" fill="#2A2651"/>
<path fill-rule="evenodd" clip-rule="evenodd" d="M148.412 342.513C148.944 342.366 149.478 342.959 149.268 343.466C149.127 343.966 148.416 344.138 148.059 343.761C147.629 343.389 147.854 342.606 148.412 342.513Z" fill="#2A2651"/>
<path fill-rule="evenodd" clip-rule="evenodd" d="M451.903 342.835C452.227 342.651 452.671 342.977 452.549 343.344C452.485 343.713 451.899 343.788 451.734 343.462C451.587 343.249 451.684 342.953 451.903 342.835Z" fill="#2A2651"/>
<path fill-rule="evenodd" clip-rule="evenodd" d="M432.969 343.038C433.211 342.911 433.508 343.126 433.338 343.385C433.104 343.619 432.76 343.277 432.969 343.038Z" fill="#2A2651"/>
<path fill-rule="evenodd" clip-rule="evenodd" d="M404.036 348.254C405.846 347.969 407.756 348.91 408.625 350.52C409.595 352.222 409.269 354.543 407.84 355.894C406.372 357.398 403.81 357.604 402.111 356.372C400.491 355.286 399.782 353.088 400.428 351.256C400.941 349.684 402.395 348.477 404.036 348.254Z" fill="#2A2651"/>
<path fill-rule="evenodd" clip-rule="evenodd" d="M394.528 349.136C395.471 348.969 396.486 349.159 397.272 349.719C398.309 350.42 398.917 351.689 398.821 352.936C398.749 354.405 397.675 355.755 396.259 356.16C394.949 356.573 393.43 356.154 392.516 355.134C391.46 354.006 391.274 352.189 392.068 350.867C392.582 349.967 393.508 349.325 394.528 349.136Z" fill="#2A2651"/>
<path fill-rule="evenodd" clip-rule="evenodd" d="M422.837 349.926C423.718 349.673 424.716 349.846 425.44 350.415C426.363 351.112 426.768 352.392 426.44 353.498C426.232 354.222 425.729 354.853 425.069 355.217C424.081 355.778 422.761 355.681 421.878 354.967C421.027 354.33 420.614 353.192 420.821 352.157C420.999 351.111 421.815 350.214 422.837 349.926Z" fill="#2A2651"/>
<path fill-rule="evenodd" clip-rule="evenodd" d="M413.77 350.021C414.634 349.884 415.553 350.202 416.15 350.843C416.776 351.506 417.043 352.501 416.793 353.385C416.52 354.507 415.439 355.386 414.275 355.381C413.454 355.435 412.628 355.07 412.106 354.44C411.32 353.55 411.259 352.126 411.941 351.162C412.353 350.545 413.039 350.136 413.77 350.021Z" fill="#2A2651"/>
<path fill-rule="evenodd" clip-rule="evenodd" d="M385.241 350.353C386.053 350.192 386.943 350.466 387.49 351.095C388.288 351.925 388.309 353.345 387.561 354.216C386.908 355.05 385.665 355.31 384.714 354.863C383.849 354.483 383.272 353.547 383.333 352.606C383.332 351.528 384.185 350.547 385.241 350.353Z" fill="#2A2651"/>
<path fill-rule="evenodd" clip-rule="evenodd" d="M204.902 350.679C206.034 350.315 207.346 351.11 207.549 352.278C207.79 353.343 207.056 354.506 205.982 354.734C204.852 355.049 203.579 354.218 203.418 353.061C203.205 352.038 203.893 350.944 204.902 350.679Z" fill="#2A2651"/>
<path fill-rule="evenodd" clip-rule="evenodd" d="M186.207 351.443C186.871 351.272 187.615 351.707 187.764 352.379C187.928 353.003 187.559 353.717 186.932 353.909C186.306 354.136 185.525 353.797 185.313 353.156C185.02 352.469 185.474 351.594 186.207 351.443Z" fill="#2A2651"/>
<path fill-rule="evenodd" clip-rule="evenodd" d="M432.869 352.098C433.271 351.925 433.789 352.197 433.806 352.651C433.855 353.169 433.202 353.554 432.78 353.24C432.353 352.986 432.415 352.285 432.869 352.098Z" fill="#2A2651"/>
<path fill-rule="evenodd" clip-rule="evenodd" d="M451.898 352.1C452.341 351.929 452.852 352.359 452.731 352.826C452.662 353.292 451.994 353.492 451.681 353.142C451.347 352.852 451.473 352.23 451.898 352.1Z" fill="#2A2651"/>
<path fill-rule="evenodd" clip-rule="evenodd" d="M366.543 352.209C366.882 352.06 367.321 352.35 367.271 352.731C367.265 353.117 366.758 353.358 366.449 353.127C366.103 352.925 366.164 352.336 366.543 352.209Z" fill="#2A2651"/>
<path fill-rule="evenodd" clip-rule="evenodd" d="M214.585 352.531C214.746 352.412 214.957 352.23 215.163 352.373C215.503 352.547 215.308 353.13 214.93 353.055C214.648 353.053 214.609 352.742 214.585 352.531Z" fill="#2A2651"/>
<path fill-rule="evenodd" clip-rule="evenodd" d="M357.036 352.309C357.28 352.145 357.652 352.315 357.694 352.608C357.785 352.93 357.402 353.26 357.096 353.11C356.75 353.012 356.717 352.457 357.036 352.309Z" fill="#2A2651"/>
<path fill-rule="evenodd" clip-rule="evenodd" d="M167.388 352.404C167.538 352.382 167.729 352.353 167.807 352.527C168.013 352.775 167.636 353.153 167.384 352.97C167.161 352.845 167.196 352.534 167.388 352.404Z" fill="#2A2651"/>
<path fill-rule="evenodd" clip-rule="evenodd" d="M176.83 352.548C177.01 352.315 177.403 352.573 177.23 352.828C177.049 353.087 176.654 352.806 176.83 352.548Z" fill="#2A2651"/>
<path fill-rule="evenodd" clip-rule="evenodd" d="M442.484 352.515C442.668 352.315 443.014 352.643 442.82 352.84C442.626 353.13 442.198 352.702 442.484 352.515Z" fill="#2A2651"/>
<path fill-rule="evenodd" clip-rule="evenodd" d="M385.347 357.632C387.37 357.436 389.411 358.765 390.026 360.701C390.688 362.557 389.958 364.787 388.318 365.885C386.647 367.086 384.158 366.936 382.658 365.52C381.219 364.265 380.773 362.067 381.547 360.335C382.191 358.827 383.709 357.753 385.347 357.632Z" fill="#2A2651"/>
<path fill-rule="evenodd" clip-rule="evenodd" d="M375.291 357.851C377.09 357.445 379.087 358.285 380.017 359.881C381.099 361.608 380.75 364.052 379.224 365.408C377.716 366.839 375.174 366.953 373.544 365.663C371.989 364.521 371.389 362.302 372.127 360.527C372.647 359.182 373.877 358.144 375.291 357.851Z" fill="#2A2651"/>
<path fill-rule="evenodd" clip-rule="evenodd" d="M404.48 357.963C406.146 357.86 407.803 358.858 408.497 360.37C409.097 361.63 409.011 363.187 408.268 364.37C407.286 366.021 405.094 366.788 403.291 366.121C401.397 365.495 400.156 363.399 400.544 361.442C400.832 359.551 402.564 358.025 404.48 357.963Z" fill="#2A2651"/>
<path fill-rule="evenodd" clip-rule="evenodd" d="M365.997 358.617C367.182 358.359 368.488 358.744 369.332 359.618C370.419 360.682 370.681 362.453 369.984 363.797C369.468 364.819 368.443 365.575 367.303 365.734C366.136 365.925 364.896 365.504 364.094 364.639C363.041 363.546 362.818 361.778 363.542 360.451C364.04 359.52 364.959 358.825 365.997 358.617Z" fill="#2A2651"/>
<path fill-rule="evenodd" clip-rule="evenodd" d="M318.667 359.944C319.569 359.672 320.617 360.01 321.172 360.776C321.862 361.666 321.753 363.065 320.918 363.827C320.197 364.534 318.998 364.665 318.135 364.148C317.255 363.645 316.792 362.52 317.084 361.549C317.287 360.787 317.9 360.15 318.667 359.944Z" fill="#2A2651"/>
<path fill-rule="evenodd" clip-rule="evenodd" d="M309.489 360.596C310.35 360.389 311.285 361.009 311.411 361.886C311.598 362.793 310.844 363.751 309.91 363.755C309.047 363.83 308.227 363.082 308.238 362.217C308.177 361.463 308.746 360.732 309.489 360.596Z" fill="#2A2651"/>
<path fill-rule="evenodd" clip-rule="evenodd" d="M205.108 360.819C205.888 360.582 206.805 361.157 206.858 361.986C207.018 362.856 206.17 363.691 205.301 363.531C204.426 363.466 203.859 362.453 204.185 361.66C204.334 361.252 204.69 360.934 205.108 360.819Z" fill="#2A2651"/>
<path fill-rule="evenodd" clip-rule="evenodd" d="M252.564 360.947C253.473 360.642 254.43 361.595 254.129 362.502C253.923 363.411 252.635 363.73 252.017 363.042C251.333 362.424 251.672 361.159 252.564 360.947Z" fill="#2A2651"/>
<path fill-rule="evenodd" clip-rule="evenodd" d="M214.736 361.268C215.443 361.046 216.154 361.869 215.812 362.534C215.564 363.178 214.59 363.261 214.218 362.693C213.846 362.195 214.133 361.413 214.736 361.268Z" fill="#2A2651"/>
<path fill-rule="evenodd" clip-rule="evenodd" d="M328.413 361.381C328.976 361.074 329.733 361.572 329.671 362.208C329.657 362.841 328.864 363.251 328.338 362.896C327.775 362.574 327.816 361.644 328.413 361.381Z" fill="#2A2651"/>
<path fill-rule="evenodd" clip-rule="evenodd" d="M442.379 361.583C442.793 361.398 443.332 361.741 443.25 362.213C443.259 362.77 442.437 362.973 442.13 362.549C441.887 362.237 442 361.724 442.379 361.583Z" fill="#2A2651"/>
<path fill-rule="evenodd" clip-rule="evenodd" d="M243.163 361.701C243.407 361.602 243.763 361.627 243.886 361.902C244.152 362.289 243.669 362.846 243.243 362.65C242.833 362.529 242.793 361.893 243.163 361.701Z" fill="#2A2651"/>
<path fill-rule="evenodd" clip-rule="evenodd" d="M290.59 361.704C290.858 361.577 291.263 361.661 291.354 361.98C291.53 362.372 291.06 362.835 290.668 362.646C290.259 362.523 290.221 361.897 290.59 361.704Z" fill="#2A2651"/>
<path fill-rule="evenodd" clip-rule="evenodd" d="M233.741 361.791C234.086 361.562 234.532 362.025 234.313 362.365C234.166 362.652 233.698 362.653 233.572 362.351C233.448 362.159 233.548 361.89 233.741 361.791Z" fill="#2A2651"/>
<path fill-rule="evenodd" clip-rule="evenodd" d="M300.217 361.808C300.499 361.689 300.799 362.009 300.692 362.289C300.594 362.603 300.078 362.606 299.997 362.281C299.897 362.091 300.045 361.884 300.217 361.808Z" fill="#2A2651"/>
<path fill-rule="evenodd" clip-rule="evenodd" d="M224.374 361.939C224.676 361.789 224.832 362.361 224.5 362.389C224.227 362.465 224.106 362.009 224.374 361.939Z" fill="#2A2651"/>
<path fill-rule="evenodd" clip-rule="evenodd" d="M262.28 361.89C262.48 361.807 262.746 361.989 262.681 362.213C262.663 362.411 262.434 362.471 262.273 362.418C262.067 362.318 262.074 361.982 262.28 361.89Z" fill="#2A2651"/>
<path fill-rule="evenodd" clip-rule="evenodd" d="M271.859 362.473C271.442 362.425 271.537 361.895 271.866 361.785C272.263 361.849 272.322 362.502 271.859 362.473Z" fill="#2A2651"/>
<path fill-rule="evenodd" clip-rule="evenodd" d="M357.025 362.111C357.047 361.879 357.328 361.928 357.489 361.96C357.479 362.051 357.46 362.23 357.45 362.321C357.292 362.484 356.957 362.349 357.025 362.111Z" fill="#2A2651"/>
<path fill-rule="evenodd" clip-rule="evenodd" d="M394.928 362.042C395.053 361.999 395.244 361.834 395.364 361.991C395.536 362.116 395.385 362.451 395.175 362.388C394.986 362.398 394.989 362.157 394.928 362.042Z" fill="#2A2651"/>
<path fill-rule="evenodd" clip-rule="evenodd" d="M423.615 361.923C423.885 361.848 424.015 362.315 423.733 362.383C423.425 362.491 423.28 361.971 423.615 361.923Z" fill="#2A2651"/>
<path fill-rule="evenodd" clip-rule="evenodd" d="M414.139 362.372C413.997 362.229 413.981 362.082 414.148 361.956C414.204 362.005 414.315 362.105 414.372 362.155C414.289 362.224 414.211 362.296 414.139 362.372Z" fill="#2A2651"/>
<path fill-rule="evenodd" clip-rule="evenodd" d="M347.31 367.555C349.08 367.327 350.908 368.401 351.567 370.056C352.345 371.847 351.612 374.12 349.924 375.112C348.734 375.854 347.153 375.912 345.907 375.273C344.297 374.483 343.36 372.554 343.755 370.806C344.068 369.101 345.584 367.723 347.31 367.555Z" fill="#2A2651"/>
<path fill-rule="evenodd" clip-rule="evenodd" d="M366.332 368C368.015 367.777 369.747 368.893 370.231 370.517C370.518 371.476 370.429 372.562 369.919 373.435C369.361 374.429 368.306 375.129 367.168 375.242C365.937 375.401 364.644 374.873 363.884 373.895C362.932 372.736 362.832 370.976 363.631 369.711C364.205 368.767 365.23 368.115 366.332 368Z" fill="#2A2651"/>
<path fill-rule="evenodd" clip-rule="evenodd" d="M242.721 368.771C243.727 368.517 244.856 368.839 245.567 369.595C246.622 370.662 246.634 372.541 245.592 373.619C244.651 374.679 242.919 374.864 241.764 374.051C240.678 373.339 240.204 371.863 240.646 370.649C240.968 369.732 241.769 368.992 242.721 368.771Z" fill="#2A2651"/>
<path fill-rule="evenodd" clip-rule="evenodd" d="M252.782 369.106C254.119 369.006 255.4 370.134 255.43 371.48C255.554 372.815 254.417 374.104 253.07 374.128C252.251 374.201 251.43 373.823 250.928 373.181C250.294 372.397 250.223 371.218 250.731 370.353C251.145 369.625 251.946 369.15 252.782 369.106Z" fill="#2A2651"/>
<path fill-rule="evenodd" clip-rule="evenodd" d="M375.844 369.213C376.807 369.048 377.849 369.529 378.335 370.379C378.876 371.272 378.758 372.511 378.035 373.273C377.345 374.054 376.132 374.278 375.195 373.836C374.342 373.451 373.747 372.53 373.804 371.589C373.758 370.432 374.711 369.377 375.844 369.213Z" fill="#2A2651"/>
<path fill-rule="evenodd" clip-rule="evenodd" d="M423.279 369.987C424.274 369.722 425.362 370.561 425.336 371.592C425.413 372.621 424.342 373.503 423.346 373.272C422.631 373.153 422.046 372.52 421.987 371.801C421.885 370.984 422.466 370.153 423.279 369.987Z" fill="#2A2651"/>
<path fill-rule="evenodd" clip-rule="evenodd" d="M337.789 370.077C338.735 369.74 339.87 370.469 339.904 371.481C340.018 372.388 339.231 373.273 338.313 373.245C337.505 373.288 336.741 372.628 336.673 371.825C336.558 371.073 337.061 370.291 337.789 370.077Z" fill="#2A2651"/>
<path fill-rule="evenodd" clip-rule="evenodd" d="M233.521 370.409C234.435 370.041 235.47 370.986 235.195 371.927C235.019 372.854 233.728 373.236 233.068 372.568C232.352 371.969 232.622 370.669 233.521 370.409Z" fill="#2A2651"/>
<path fill-rule="evenodd" clip-rule="evenodd" d="M357.022 370.955C357.488 370.776 358.035 371.194 357.96 371.693C357.954 372.229 357.243 372.523 356.837 372.194C356.387 371.892 356.496 371.108 357.022 370.955Z" fill="#2A2651"/>
<path fill-rule="evenodd" clip-rule="evenodd" d="M394.948 371.164C395.251 370.983 395.736 371.2 395.711 371.582C395.797 372.008 395.235 372.306 394.907 372.055C394.586 371.854 394.603 371.326 394.948 371.164Z" fill="#2A2651"/>
<path fill-rule="evenodd" clip-rule="evenodd" d="M214.833 371.286C215.276 371.077 215.565 371.845 215.09 371.975C214.657 372.144 214.398 371.428 214.833 371.286Z" fill="#2A2651"/>
<path fill-rule="evenodd" clip-rule="evenodd" d="M224.218 371.486C224.385 371.363 224.647 371.339 224.712 371.591C224.689 371.852 224.448 371.865 224.247 371.812C224.239 371.73 224.225 371.568 224.218 371.486Z" fill="#2A2651"/>
<path fill-rule="evenodd" clip-rule="evenodd" d="M262.27 371.373C262.492 371.203 262.81 371.546 262.651 371.77C262.556 371.996 262.29 371.858 262.117 371.837C262.159 371.683 262.081 371.442 262.27 371.373Z" fill="#2A2651"/>
<path fill-rule="evenodd" clip-rule="evenodd" d="M328.558 371.457C328.687 371.437 328.943 371.301 329.001 371.501C329.158 371.736 328.803 371.985 328.622 371.787C328.605 371.704 328.575 371.539 328.558 371.457Z" fill="#2A2651"/>
<path fill-rule="evenodd" clip-rule="evenodd" d="M290.145 376.711C291.993 376.388 293.963 377.371 294.806 379.043C295.741 380.792 295.313 383.134 293.795 384.422C292.261 385.814 289.737 385.888 288.125 384.588C286.489 383.371 285.946 380.965 286.859 379.153C287.468 377.868 288.737 376.927 290.145 376.711Z" fill="#2A2651"/>
<path fill-rule="evenodd" clip-rule="evenodd" d="M299.555 376.829C300.709 376.635 301.949 376.878 302.894 377.584C304.436 378.663 305.092 380.8 304.427 382.557C303.809 384.375 301.865 385.609 299.953 385.398C298.181 385.272 296.59 383.926 296.153 382.213C295.84 381.039 296.035 379.734 296.709 378.719C297.347 377.737 298.402 377.041 299.555 376.829Z" fill="#2A2651"/>
<path fill-rule="evenodd" clip-rule="evenodd" d="M356.828 377.493C357.932 377.361 359.083 377.757 359.86 378.557C360.944 379.638 361.195 381.424 360.476 382.771C360.026 383.627 359.222 384.291 358.289 384.561C357.03 384.94 355.583 384.575 354.668 383.629C353.579 382.556 353.315 380.771 354.034 379.425C354.569 378.372 355.65 377.621 356.828 377.493Z" fill="#2A2651"/>
<path fill-rule="evenodd" clip-rule="evenodd" d="M318.558 377.923C319.4 377.731 320.323 377.864 321.054 378.335C321.987 378.907 322.582 379.978 322.576 381.071C322.585 381.957 322.214 382.837 321.568 383.446C320.762 384.224 319.535 384.535 318.457 384.225C317.618 384.011 316.892 383.435 316.472 382.686C316.033 381.904 315.935 380.943 316.21 380.091C316.54 379.025 317.468 378.17 318.558 377.923Z" fill="#2A2651"/>
<path fill-rule="evenodd" clip-rule="evenodd" d="M338.035 378.37C339.052 378.265 340.099 378.791 340.624 379.667C341.035 380.321 341.11 381.149 340.905 381.886C340.601 382.926 339.619 383.717 338.539 383.806C337.504 383.913 336.435 383.37 335.925 382.464C335.41 381.605 335.436 380.464 335.978 379.625C336.413 378.91 337.205 378.449 338.035 378.37Z" fill="#2A2651"/>
<path fill-rule="evenodd" clip-rule="evenodd" d="M271.695 379.474C272.62 379.334 273.546 380.136 273.51 381.076C273.557 381.959 272.747 382.755 271.865 382.715C270.914 382.734 270.103 381.785 270.275 380.853C270.369 380.141 270.978 379.544 271.695 379.474Z" fill="#2A2651"/>
<path fill-rule="evenodd" clip-rule="evenodd" d="M243.032 379.896C243.843 379.577 244.8 380.331 244.671 381.192C244.667 382.151 243.39 382.706 242.663 382.093C241.862 381.54 242.082 380.148 243.032 379.896Z" fill="#2A2651"/>
<path fill-rule="evenodd" clip-rule="evenodd" d="M394.749 380.14C395.359 379.824 396.197 380.273 396.242 380.965C396.322 381.464 395.974 381.965 395.493 382.097C394.899 382.292 394.197 381.822 394.16 381.201C394.106 380.768 394.343 380.315 394.749 380.14Z" fill="#2A2651"/>
<path fill-rule="evenodd" clip-rule="evenodd" d="M252.765 380.449C253.282 380.293 253.777 380.925 253.498 381.385C253.299 381.861 252.519 381.854 252.324 381.38C252.131 381.019 252.363 380.524 252.765 380.449Z" fill="#2A2651"/>
<path fill-rule="evenodd" clip-rule="evenodd" d="M281.302 380.569C281.729 380.483 282.069 381.04 281.803 381.384C281.595 381.743 280.973 381.661 280.875 381.259C280.745 380.957 280.983 380.6 281.302 380.569Z" fill="#2A2651"/>
<path fill-rule="evenodd" clip-rule="evenodd" d="M413.967 380.547C414.37 380.387 414.841 380.761 414.743 381.191C414.686 381.533 414.274 381.775 413.957 381.621C413.477 381.474 413.493 380.689 413.967 380.547Z" fill="#2A2651"/>
<path fill-rule="evenodd" clip-rule="evenodd" d="M205.359 380.802C205.582 380.665 205.875 380.945 205.776 381.18C205.742 381.468 205.219 381.468 205.198 381.178C205.152 381.023 205.208 380.865 205.359 380.802Z" fill="#2A2651"/>
<path fill-rule="evenodd" clip-rule="evenodd" d="M233.77 380.892C233.921 380.826 234.194 380.835 234.166 381.07C234.218 381.279 233.993 381.331 233.836 381.318C233.676 381.221 233.696 381.031 233.77 380.892Z" fill="#2A2651"/>
<path fill-rule="evenodd" clip-rule="evenodd" d="M262.264 381.279C262.072 381.187 262.165 380.85 262.368 380.86C262.523 380.807 262.589 381.015 262.701 381.09C262.577 381.201 262.453 381.426 262.264 381.279Z" fill="#2A2651"/>
<path fill-rule="evenodd" clip-rule="evenodd" d="M328.647 380.91C328.903 380.667 329.215 381.154 328.907 381.293C328.659 381.461 328.451 381.049 328.647 380.91Z" fill="#2A2651"/>
<path fill-rule="evenodd" clip-rule="evenodd" d="M366.645 380.992C366.776 380.833 367.006 381.074 366.87 381.212C366.734 381.35 366.489 381.125 366.645 380.992Z" fill="#2A2651"/>
<path fill-rule="evenodd" clip-rule="evenodd" d="M347.127 388.091C347.64 387.227 348.992 387.102 349.665 387.843C350.291 388.453 350.272 389.569 349.62 390.154C349.161 390.605 348.456 390.694 347.861 390.496C347.825 390.548 347.754 390.654 347.718 390.707C347.709 390.63 347.693 390.478 347.684 390.402C346.895 389.953 346.612 388.844 347.127 388.091Z" fill="#2A2651"/>
<path fill-rule="evenodd" clip-rule="evenodd" d="M290.703 389.833C291.187 389.706 291.687 390.185 291.58 390.676C291.518 391.227 290.75 391.507 290.363 391.093C289.917 390.728 290.134 389.923 290.703 389.833Z" fill="#2A2651"/>
<path fill-rule="evenodd" clip-rule="evenodd" d="M252.78 390.261C252.941 390.217 253.188 390.253 253.21 390.463C253.328 390.73 252.917 391.017 252.719 390.797C252.534 390.658 252.567 390.358 252.78 390.261Z" fill="#2A2651"/>
<path fill-rule="evenodd" clip-rule="evenodd" d="M300.005 390.4C300.119 390.087 300.652 390.132 300.702 390.467C300.751 390.636 300.619 390.772 300.536 390.904C300.439 390.903 300.245 390.901 300.149 390.9C300.056 390.751 299.897 390.581 300.005 390.4Z" fill="#2A2651"/>
<path fill-rule="evenodd" clip-rule="evenodd" d="M337.926 390.629C337.827 390.28 338.352 390.011 338.569 390.319C338.747 390.511 338.6 390.766 338.451 390.926C338.245 390.891 337.955 390.893 337.926 390.629Z" fill="#2A2651"/>
<path fill-rule="evenodd" clip-rule="evenodd" d="M243.254 390.372C243.329 390.366 243.48 390.353 243.555 390.347C243.734 390.449 243.678 390.802 243.442 390.782C243.231 390.821 243.102 390.517 243.254 390.372Z" fill="#2A2651"/>
<path fill-rule="evenodd" clip-rule="evenodd" d="M271.806 390.465C271.978 390.4 272.04 390.462 271.992 390.65C271.815 390.709 271.752 390.647 271.806 390.465Z" fill="#2A2651"/>
<path fill-rule="evenodd" clip-rule="evenodd" d="M318.964 368.765C319.824 368.559 320.76 369.179 320.886 370.056C321.072 370.962 320.318 371.92 319.384 371.924C318.522 371.999 317.701 371.252 317.712 370.387C317.651 369.632 318.221 368.902 318.964 368.765Z" fill="#2A2651"/>
<path fill-rule="evenodd" clip-rule="evenodd" d="M285.262 361.661C285.506 361.562 285.862 361.587 285.985 361.862C286.251 362.249 285.768 362.806 285.342 362.61C284.932 362.49 284.892 361.853 285.262 361.661Z" fill="#2A2651"/>
<path fill-rule="evenodd" clip-rule="evenodd" d="M277.388 361.752C277.733 361.522 278.179 361.986 277.96 362.325C277.813 362.612 277.345 362.613 277.219 362.311C277.095 362.119 277.195 361.85 277.388 361.752Z" fill="#2A2651"/>
<path fill-rule="evenodd" clip-rule="evenodd" d="M334.981 361.447C335.248 361.32 335.653 361.404 335.745 361.722C335.921 362.114 335.451 362.577 335.058 362.389C334.649 362.265 334.612 361.64 334.981 361.447Z" fill="#2A2651"/>
<path fill-rule="evenodd" clip-rule="evenodd" d="M344.608 361.55C344.89 361.431 345.19 361.751 345.082 362.031C344.985 362.346 344.469 362.348 344.388 362.023C344.287 361.834 344.436 361.626 344.608 361.55Z" fill="#2A2651"/>
<path fill-rule="evenodd" clip-rule="evenodd" d="M270.901 369.723C271.711 369.404 272.669 370.158 272.539 371.019C272.536 371.978 271.259 372.533 270.531 371.919C269.731 371.367 269.951 369.974 270.901 369.723Z" fill="#2A2651"/>
<path fill-rule="evenodd" clip-rule="evenodd" d="M277.977 370.135C278.494 369.98 278.989 370.612 278.71 371.072C278.511 371.548 277.731 371.541 277.536 371.067C277.343 370.706 277.575 370.21 277.977 370.135Z" fill="#2A2651"/>
<path fill-rule="evenodd" clip-rule="evenodd" d="M285.099 369.461C285.736 369.12 286.606 369.677 286.498 370.409C286.496 371.198 285.397 371.592 284.865 371.036C284.366 370.606 284.51 369.734 285.099 369.461Z" fill="#2A2651"/>
<path fill-rule="evenodd" clip-rule="evenodd" d="M309.441 369.138C310.252 368.819 311.209 369.572 311.08 370.434C311.077 371.393 309.799 371.948 309.072 371.334C308.271 370.781 308.491 369.389 309.441 369.138Z" fill="#2A2651"/>
<path fill-rule="evenodd" clip-rule="evenodd" d="M291.863 369.376C292.338 369.279 292.743 369.834 292.525 370.262C292.364 370.657 291.768 370.752 291.495 370.423C291.144 370.086 291.375 369.418 291.863 369.376Z" fill="#2A2651"/>
<path fill-rule="evenodd" clip-rule="evenodd" d="M301.238 369.683C301.633 369.401 302.059 370.091 301.623 370.309C301.234 370.588 300.831 369.91 301.238 369.683Z" fill="#2A2651"/>
</g>
<g filter="url(#filter0_d_391_850)">
<path d="M564 300C564 446.381 445.554 565 299.5 565C153.446 565 35 446.381 35 300C35 153.619 153.446 35 299.5 35C445.554 35 564 153.619 564 300Z" stroke="white" stroke-opacity="0.7" stroke-width="30"/>
</g>
<g filter="url(#filter1_d_391_850)">
<path d="M522 299.5C522 422.377 422.166 522 299 522C175.834 522 76 422.377 76 299.5C76 176.623 175.834 77 299 77C422.166 77 522 176.623 522 299.5Z" stroke="white" stroke-opacity="0.6" stroke-width="6"/>
</g>
<circle cx="573" cy="300" r="23" fill="#39B6C0" fill-opacity="0.2"/>
<g filter="url(#filter2_d_391_850)">
<circle cx="573" cy="299.671" r="16.1" fill="#39B6C0"/>
<circle cx="573" cy="299.671" r="15.6" stroke="white"/>
</g>
<path d="M573 295.4C572.619 295.4 572.31 295.709 572.31 296.09V303.91C572.31 304.291 572.619 304.6 573 304.6C573.381 304.6 573.69 304.291 573.69 303.91V296.09C573.69 295.709 573.381 295.4 573 295.4Z" fill="white"/>
<path d="M576.91 299.31H569.09C568.709 299.31 568.4 299.619 568.4 300C568.4 300.381 568.709 300.69 569.09 300.69H576.91C577.291 300.69 577.6 300.381 577.6 300C577.6 299.619 577.291 299.31 576.91 299.31Z" fill="white"/>
<circle cx="24" cy="300" r="23" fill="#39B6C0" fill-opacity="0.2"/>
<g filter="url(#filter3_d_391_850)">
<circle cx="24" cy="299.671" r="16.1" fill="#39B6C0"/>
<circle cx="24" cy="299.671" r="15.6" stroke="white"/>
</g>
<path d="M24.0002 295.4C23.6191 295.4 23.3102 295.709 23.3102 296.09V303.91C23.3102 304.291 23.6191 304.6 24.0002 304.6C24.3814 304.6 24.6902 304.291 24.6902 303.91V296.09C24.6902 295.709 24.3814 295.4 24.0002 295.4Z" fill="white"/>
<path d="M27.9101 299.31H20.0901C19.709 299.31 19.4001 299.619 19.4001 300C19.4001 300.381 19.709 300.69 20.0901 300.69H27.9101C28.2912 300.69 28.6001 300.381 28.6001 300C28.6001 299.619 28.2912 299.31 27.9101 299.31Z" fill="white"/>
<circle cx="84" cy="463" r="35" fill="#39B6C0" fill-opacity="0.2"/>
<g filter="url(#filter4_d_391_850)">
<circle cx="84" cy="462.5" r="24.5" fill="#0C669C"/>
<circle cx="84" cy="462.5" r="24" stroke="white"/>
</g>
<path d="M84 456C83.42 456 82.95 456.47 82.95 457.05V468.95C82.95 469.53 83.42 470 84 470C84.58 470 85.05 469.53 85.05 468.95V457.05C85.05 456.47 84.58 456 84 456Z" fill="white"/>
<path d="M89.95 461.95H78.05C77.4701 461.95 77 462.42 77 463C77 463.58 77.4701 464.05 78.05 464.05H89.95C90.5299 464.05 91 463.58 91 463C91 462.42 90.5299 461.95 89.95 461.95Z" fill="white"/>
<circle cx="300" cy="35" r="35" fill="#39B6C0" fill-opacity="0.2"/>
<g filter="url(#filter5_d_391_850)">
<circle cx="300" cy="34.5" r="24.5" fill="#39B6C0"/>
<circle cx="300" cy="34.5" r="24" stroke="white"/>
</g>
<path d="M300 28C299.42 28 298.95 28.4701 298.95 29.05V40.95C298.95 41.5299 299.42 42 300 42C300.58 42 301.05 41.5299 301.05 40.95V29.05C301.05 28.4701 300.58 28 300 28Z" fill="white"/>
<path d="M305.95 33.95H294.05C293.47 33.95 293 34.4201 293 35C293 35.58 293.47 36.05 294.05 36.05H305.95C306.53 36.05 307 35.58 307 35C307 34.4201 306.53 33.95 305.95 33.95Z" fill="white"/>
<circle cx="302" cy="567" r="35" fill="#39B6C0" fill-opacity="0.2"/>
<g filter="url(#filter6_d_391_850)">
<circle cx="302" cy="566.5" r="24.5" fill="#39B6C0"/>
<circle cx="302" cy="566.5" r="24" stroke="white"/>
</g>
<path d="M302 560C301.42 560 300.95 560.47 300.95 561.05V572.95C300.95 573.53 301.42 574 302 574C302.58 574 303.05 573.53 303.05 572.95V561.05C303.05 560.47 302.58 560 302 560Z" fill="white"/>
<path d="M307.95 565.95H296.05C295.47 565.95 295 566.42 295 567C295 567.58 295.47 568.05 296.05 568.05H307.95C308.53 568.05 309 567.58 309 567C309 566.42 308.53 565.95 307.95 565.95Z" fill="white"/>
<circle cx="519" cy="137" r="35" fill="#39B6C0" fill-opacity="0.2"/>
<g filter="url(#filter7_d_391_850)">
<circle cx="519" cy="136.5" r="24.5" fill="#0C669C"/>
<circle cx="519" cy="136.5" r="24" stroke="white"/>
</g>
<path d="M519 130C518.42 130 517.95 130.47 517.95 131.05V142.95C517.95 143.53 518.42 144 519 144C519.58 144 520.05 143.53 520.05 142.95V131.05C520.05 130.47 519.58 130 519 130Z" fill="white"/>
<path d="M524.95 135.95H513.05C512.47 135.95 512 136.42 512 137C512 137.58 512.47 138.05 513.05 138.05H524.95C525.53 138.05 526 137.58 526 137C526 136.42 525.53 135.95 524.95 135.95Z" fill="white"/>
<circle cx="84" cy="137" r="35" fill="#39B6C0" fill-opacity="0.2"/>
<g filter="url(#filter8_d_391_850)">
<circle cx="84" cy="136.5" r="24.5" fill="#0C669C"/>
<circle cx="84" cy="136.5" r="24" stroke="white"/>
</g>
<path d="M84 130C83.42 130 82.95 130.47 82.95 131.05V142.95C82.95 143.53 83.42 144 84 144C84.58 144 85.05 143.53 85.05 142.95V131.05C85.05 130.47 84.58 130 84 130Z" fill="white"/>
<path d="M89.95 135.95H78.05C77.4701 135.95 77 136.42 77 137C77 137.58 77.4701 138.05 78.05 138.05H89.95C90.5299 138.05 91 137.58 91 137C91 136.42 90.5299 135.95 89.95 135.95Z" fill="white"/>
<circle cx="519" cy="463" r="35" fill="#39B6C0" fill-opacity="0.2"/>
<g filter="url(#filter9_d_391_850)">
<circle cx="519" cy="462.5" r="24.5" fill="#0C669C"/>
<circle cx="519" cy="462.5" r="24" stroke="white"/>
</g>
<path d="M519 456C518.42 456 517.95 456.47 517.95 457.05V468.95C517.95 469.53 518.42 470 519 470C519.58 470 520.05 469.53 520.05 468.95V457.05C520.05 456.47 519.58 456 519 456Z" fill="white"/>
<path d="M524.95 461.95H513.05C512.47 461.95 512 462.42 512 463C512 463.58 512.47 464.05 513.05 464.05H524.95C525.53 464.05 526 463.58 526 463C526 462.42 525.53 461.95 524.95 461.95Z" fill="white"/>
<defs>
<filter id="filter0_d_391_850" x="0" y="2" width="599" height="600" filterUnits="userSpaceOnUse" color-interpolation-filters="sRGB">
<feFlood flood-opacity="0" result="BackgroundImageFix"/>
<feColorMatrix in="SourceAlpha" type="matrix" values="0 0 0 0 0 0 0 0 0 0 0 0 0 0 0 0 0 0 127 0" result="hardAlpha"/>
<feOffset dy="2"/>
<feGaussianBlur stdDeviation="10"/>
<feColorMatrix type="matrix" values="0 0 0 0 0.305882 0 0 0 0 0.498039 0 0 0 0 0.870588 0 0 0 0.2 0"/>
<feBlend mode="normal" in2="BackgroundImageFix" result="effect1_dropShadow_391_850"/>
<feBlend mode="normal" in="SourceGraphic" in2="effect1_dropShadow_391_850" result="shape"/>
</filter>
<filter id="filter1_d_391_850" x="53" y="56" width="492" height="491" filterUnits="userSpaceOnUse" color-interpolation-filters="sRGB">
<feFlood flood-opacity="0" result="BackgroundImageFix"/>
<feColorMatrix in="SourceAlpha" type="matrix" values="0 0 0 0 0 0 0 0 0 0 0 0 0 0 0 0 0 0 127 0" result="hardAlpha"/>
<feOffset dy="2"/>
<feGaussianBlur stdDeviation="10"/>
<feColorMatrix type="matrix" values="0 0 0 0 0.305882 0 0 0 0 0.498039 0 0 0 0 0.870588 0 0 0 0.2 0"/>
<feBlend mode="normal" in2="BackgroundImageFix" result="effect1_dropShadow_391_850"/>
<feBlend mode="normal" in="SourceGraphic" in2="effect1_dropShadow_391_850" result="shape"/>
</filter>
<filter id="filter2_d_391_850" x="551.9" y="281.571" width="42.2" height="42.2" filterUnits="userSpaceOnUse" color-interpolation-filters="sRGB">
<feFlood flood-opacity="0" result="BackgroundImageFix"/>
<feColorMatrix in="SourceAlpha" type="matrix" values="0 0 0 0 0 0 0 0 0 0 0 0 0 0 0 0 0 0 127 0" result="hardAlpha"/>
<feOffset dy="3"/>
<feGaussianBlur stdDeviation="2.5"/>
<feComposite in2="hardAlpha" operator="out"/>
<feColorMatrix type="matrix" values="0 0 0 0 0.0470588 0 0 0 0 0.4 0 0 0 0 0.611765 0 0 0 0.64 0"/>
<feBlend mode="normal" in2="BackgroundImageFix" result="effect1_dropShadow_391_850"/>
<feBlend mode="normal" in="SourceGraphic" in2="effect1_dropShadow_391_850" result="shape"/>
</filter>
<filter id="filter3_d_391_850" x="2.89999" y="281.571" width="42.2" height="42.2" filterUnits="userSpaceOnUse" color-interpolation-filters="sRGB">
<feFlood flood-opacity="0" result="BackgroundImageFix"/>
<feColorMatrix in="SourceAlpha" type="matrix" values="0 0 0 0 0 0 0 0 0 0 0 0 0 0 0 0 0 0 127 0" result="hardAlpha"/>
<feOffset dy="3"/>
<feGaussianBlur stdDeviation="2.5"/>
<feComposite in2="hardAlpha" operator="out"/>
<feColorMatrix type="matrix" values="0 0 0 0 0.0470588 0 0 0 0 0.4 0 0 0 0 0.611765 0 0 0 0.64 0"/>
<feBlend mode="normal" in2="BackgroundImageFix" result="effect1_dropShadow_391_850"/>
<feBlend mode="normal" in="SourceGraphic" in2="effect1_dropShadow_391_850" result="shape"/>
</filter>
<filter id="filter4_d_391_850" x="54.5" y="436" width="59" height="59" filterUnits="userSpaceOnUse" color-interpolation-filters="sRGB">
<feFlood flood-opacity="0" result="BackgroundImageFix"/>
<feColorMatrix in="SourceAlpha" type="matrix" values="0 0 0 0 0 0 0 0 0 0 0 0 0 0 0 0 0 0 127 0" result="hardAlpha"/>
<feOffset dy="3"/>
<feGaussianBlur stdDeviation="2.5"/>
<feComposite in2="hardAlpha" operator="out"/>
<feColorMatrix type="matrix" values="0 0 0 0 0.0470588 0 0 0 0 0.4 0 0 0 0 0.611765 0 0 0 0.64 0"/>
<feBlend mode="normal" in2="BackgroundImageFix" result="effect1_dropShadow_391_850"/>
<feBlend mode="normal" in="SourceGraphic" in2="effect1_dropShadow_391_850" result="shape"/>
</filter>
<filter id="filter5_d_391_850" x="270.5" y="8" width="59" height="59" filterUnits="userSpaceOnUse" color-interpolation-filters="sRGB">
<feFlood flood-opacity="0" result="BackgroundImageFix"/>
<feColorMatrix in="SourceAlpha" type="matrix" values="0 0 0 0 0 0 0 0 0 0 0 0 0 0 0 0 0 0 127 0" result="hardAlpha"/>
<feOffset dy="3"/>
<feGaussianBlur stdDeviation="2.5"/>
<feComposite in2="hardAlpha" operator="out"/>
<feColorMatrix type="matrix" values="0 0 0 0 0.0470588 0 0 0 0 0.4 0 0 0 0 0.611765 0 0 0 0.64 0"/>
<feBlend mode="normal" in2="BackgroundImageFix" result="effect1_dropShadow_391_850"/>
<feBlend mode="normal" in="SourceGraphic" in2="effect1_dropShadow_391_850" result="shape"/>
</filter>
<filter id="filter6_d_391_850" x="272.5" y="540" width="59" height="59" filterUnits="userSpaceOnUse" color-interpolation-filters="sRGB">
<feFlood flood-opacity="0" result="BackgroundImageFix"/>
<feColorMatrix in="SourceAlpha" type="matrix" values="0 0 0 0 0 0 0 0 0 0 0 0 0 0 0 0 0 0 127 0" result="hardAlpha"/>
<feOffset dy="3"/>
<feGaussianBlur stdDeviation="2.5"/>
<feComposite in2="hardAlpha" operator="out"/>
<feColorMatrix type="matrix" values="0 0 0 0 0.0470588 0 0 0 0 0.4 0 0 0 0 0.611765 0 0 0 0.64 0"/>
<feBlend mode="normal" in2="BackgroundImageFix" result="effect1_dropShadow_391_850"/>
<feBlend mode="normal" in="SourceGraphic" in2="effect1_dropShadow_391_850" result="shape"/>
</filter>
<filter id="filter7_d_391_850" x="489.5" y="110" width="59" height="59" filterUnits="userSpaceOnUse" color-interpolation-filters="sRGB">
<feFlood flood-opacity="0" result="BackgroundImageFix"/>
<feColorMatrix in="SourceAlpha" type="matrix" values="0 0 0 0 0 0 0 0 0 0 0 0 0 0 0 0 0 0 127 0" result="hardAlpha"/>
<feOffset dy="3"/>
<feGaussianBlur stdDeviation="2.5"/>
<feComposite in2="hardAlpha" operator="out"/>
<feColorMatrix type="matrix" values="0 0 0 0 0.0470588 0 0 0 0 0.4 0 0 0 0 0.611765 0 0 0 0.64 0"/>
<feBlend mode="normal" in2="BackgroundImageFix" result="effect1_dropShadow_391_850"/>
<feBlend mode="normal" in="SourceGraphic" in2="effect1_dropShadow_391_850" result="shape"/>
</filter>
<filter id="filter8_d_391_850" x="54.5" y="110" width="59" height="59" filterUnits="userSpaceOnUse" color-interpolation-filters="sRGB">
<feFlood flood-opacity="0" result="BackgroundImageFix"/>
<feColorMatrix in="SourceAlpha" type="matrix" values="0 0 0 0 0 0 0 0 0 0 0 0 0 0 0 0 0 0 127 0" result="hardAlpha"/>
<feOffset dy="3"/>
<feGaussianBlur stdDeviation="2.5"/>
<feComposite in2="hardAlpha" operator="out"/>
<feColorMatrix type="matrix" values="0 0 0 0 0.0470588 0 0 0 0 0.4 0 0 0 0 0.611765 0 0 0 0.64 0"/>
<feBlend mode="normal" in2="BackgroundImageFix" result="effect1_dropShadow_391_850"/>
<feBlend mode="normal" in="SourceGraphic" in2="effect1_dropShadow_391_850" result="shape"/>
</filter>
<filter id="filter9_d_391_850" x="489.5" y="436" width="59" height="59" filterUnits="userSpaceOnUse" color-interpolation-filters="sRGB">
<feFlood flood-opacity="0" result="BackgroundImageFix"/>
<feColorMatrix in="SourceAlpha" type="matrix" values="0 0 0 0 0 0 0 0 0 0 0 0 0 0 0 0 0 0 127 0" result="hardAlpha"/>
<feOffset dy="3"/>
<feGaussianBlur stdDeviation="2.5"/>
<feComposite in2="hardAlpha" operator="out"/>
<feColorMatrix type="matrix" values="0 0 0 0 0.0470588 0 0 0 0 0.4 0 0 0 0 0.611765 0 0 0 0.64 0"/>
<feBlend mode="normal" in2="BackgroundImageFix" result="effect1_dropShadow_391_850"/>
<feBlend mode="normal" in="SourceGraphic" in2="effect1_dropShadow_391_850" result="shape"/>
</filter>
<linearGradient id="paint0_linear_391_850" x1="234" y1="283.341" x2="360.921" y2="283.341" gradientUnits="userSpaceOnUse">
<stop stop-color="#107BB7"/>
<stop offset="1" stop-color="#39B6C0"/>
</linearGradient>
<clipPath id="clip0_391_850">
<rect width="384" height="209" fill="white" transform="translate(110 191)"/>
</clipPath>
</defs>
</svg>
